<svg width="256" height="55" viewBox="0 0 256 55" fill="none" xmlns="http://www.w3.org/2000/svg">
<path d="M54.9 27.4C54.9 42.5326 42.6102 54.8 27.45 54.8C12.2898 54.8 0 42.5326 0 27.4C0 12.2674 12.2898 0 27.45 0C42.6102 0 54.9 12.2674 54.9 27.4Z" fill="#081C3C"/>
<path d="M4.05005 29.8636C18.3765 4.39048 32.5121 49.974 50.8501 29.8636M50.85 29.977C42.425 -7.02302 18.775 32.127 4.05005 29.977" stroke="#9A8F85" stroke-width="1.5" stroke-linecap="round"/>
<path d="M50.8499 29.927C42.4249 -7.07302 18.7749 32.077 4.04985 29.927" stroke="#F4EFE8" stroke-width="1.5" stroke-linecap="round"/>
<path d="M50.8499 29.9C28.4999 25.4 39.3999 56.55 4.04986 29.9" stroke="#E3DED7" stroke-width="1.5" stroke-linecap="round"/>
<path d="M50.8499 29.9234C43.1999 20.6714 14.4249 40.6464 4.04985 29.9234" stroke="#B3475A" stroke-width="1.5" stroke-linecap="round"/>
<path d="M69.88 43V14.44H73.48V39.8H85.96V43H69.88ZM89.8966 21.56V43H86.3766V21.56H89.8966ZM88.1766 13.52C88.7099 13.52 89.1766 13.7067 89.5766 14.08C90.0032 14.4267 90.2166 14.9867 90.2166 15.76C90.2166 16.5067 90.0032 17.0667 89.5766 17.44C89.1766 17.8133 88.7099 18 88.1766 18C87.5899 18 87.0966 17.8133 86.6966 17.44C86.2966 17.0667 86.0966 16.5067 86.0966 15.76C86.0966 14.9867 86.2966 14.4267 86.6966 14.08C87.0966 13.7067 87.5899 13.52 88.1766 13.52ZM103.009 21.16C105.569 21.16 107.502 21.7867 108.809 23.04C110.116 24.2667 110.769 26.2667 110.769 29.04V43H107.289V29.28C107.289 27.5467 106.902 26.2533 106.129 25.4C105.356 24.5467 104.142 24.12 102.489 24.12C100.116 24.12 98.4757 24.7867 97.5691 26.12C96.6624 27.4533 96.2091 29.3733 96.2091 31.88V43H92.6891V21.56H95.5291L96.0491 24.48H96.2491C96.7291 23.7333 97.3157 23.12 98.0091 22.64C98.7291 22.1333 99.5157 21.76 100.369 21.52C101.222 21.28 102.102 21.16 103.009 21.16ZM121.016 21.16C122.429 21.16 123.696 21.4267 124.816 21.96C125.962 22.4933 126.936 23.3067 127.736 24.4H127.936L128.416 21.56H131.216V43.36C131.216 45.3867 130.869 47.08 130.176 48.44C129.482 49.8267 128.429 50.8667 127.016 51.56C125.602 52.2533 123.802 52.6 121.616 52.6C120.069 52.6 118.642 52.48 117.336 52.24C116.056 52.0267 114.909 51.6933 113.896 51.24V48C114.589 48.3467 115.349 48.64 116.176 48.88C117.002 49.1467 117.896 49.3467 118.856 49.48C119.816 49.6133 120.802 49.68 121.816 49.68C123.656 49.68 125.096 49.1333 126.136 48.04C127.202 46.9733 127.736 45.5067 127.736 43.64V42.8C127.736 42.48 127.749 42.0267 127.776 41.44C127.802 40.8267 127.829 40.4 127.856 40.16H127.696C126.949 41.2533 126.016 42.0667 124.896 42.6C123.802 43.1333 122.522 43.4 121.056 43.4C118.282 43.4 116.109 42.4267 114.536 40.48C112.989 38.5333 112.216 35.8133 112.216 32.32C112.216 30.0267 112.562 28.0533 113.256 26.4C113.976 24.72 114.989 23.4267 116.296 22.52C117.602 21.6133 119.176 21.16 121.016 21.16ZM121.496 24.12C120.296 24.12 119.269 24.44 118.416 25.08C117.589 25.72 116.949 26.6533 116.496 27.88C116.069 29.1067 115.856 30.6 115.856 32.36C115.856 35 116.336 37.0267 117.296 38.44C118.282 39.8267 119.709 40.52 121.576 40.52C122.669 40.52 123.602 40.3867 124.376 40.12C125.149 39.8267 125.789 39.3867 126.296 38.8C126.802 38.1867 127.176 37.4133 127.416 36.48C127.656 35.5467 127.776 34.44 127.776 33.16V32.32C127.776 30.3733 127.549 28.8 127.096 27.6C126.669 26.4 125.989 25.52 125.056 24.96C124.122 24.4 122.936 24.12 121.496 24.12ZM151.945 21.56V43H149.065L148.545 40.16H148.385C147.932 40.9067 147.345 41.52 146.625 42C145.905 42.48 145.118 42.8267 144.265 43.04C143.412 43.28 142.518 43.4 141.585 43.4C139.878 43.4 138.438 43.1333 137.265 42.6C136.118 42.04 135.252 41.1867 134.665 40.04C134.078 38.8933 133.785 37.4133 133.785 35.6V21.56H137.345V35.36C137.345 37.0667 137.732 38.3467 138.505 39.2C139.278 40.0533 140.478 40.48 142.105 40.48C143.705 40.48 144.958 40.1867 145.865 39.6C146.798 38.9867 147.452 38.1067 147.825 36.96C148.225 35.7867 148.425 34.3733 148.425 32.72V21.56H151.945ZM162.872 21.2C165.485 21.2 167.418 21.7733 168.672 22.92C169.925 24.0667 170.552 25.8933 170.552 28.4V43H167.992L167.312 39.96H167.152C166.538 40.7333 165.898 41.3867 165.232 41.92C164.592 42.4267 163.845 42.8 162.992 43.04C162.165 43.28 161.152 43.4 159.952 43.4C158.672 43.4 157.512 43.1733 156.472 42.72C155.458 42.2667 154.658 41.5733 154.072 40.64C153.485 39.68 153.192 38.48 153.192 37.04C153.192 34.9067 154.032 33.2667 155.712 32.12C157.392 30.9467 159.978 30.3067 163.472 30.2L167.112 30.08V28.8C167.112 27.0133 166.725 25.7733 165.952 25.08C165.178 24.3867 164.085 24.04 162.672 24.04C161.552 24.04 160.485 24.2133 159.472 24.56C158.458 24.88 157.512 25.2533 156.632 25.68L155.552 23.04C156.485 22.5333 157.592 22.1067 158.872 21.76C160.152 21.3867 161.485 21.2 162.872 21.2ZM163.912 32.64C161.245 32.7467 159.392 33.1733 158.352 33.92C157.338 34.6667 156.832 35.72 156.832 37.08C156.832 38.28 157.192 39.16 157.912 39.72C158.658 40.28 159.605 40.56 160.752 40.56C162.565 40.56 164.072 40.0667 165.272 39.08C166.472 38.0667 167.072 36.52 167.072 34.44V32.52L163.912 32.64ZM183.733 43H178.613V18.76H170.413V14.44H191.933V18.76H183.733V43ZM201.263 20.92C204.063 20.92 206.183 21.5333 207.623 22.76C209.089 23.96 209.823 25.8533 209.823 28.44V43H206.263L205.263 40H205.103C204.489 40.7733 203.849 41.4267 203.183 41.96C202.543 42.4667 201.796 42.8267 200.943 43.04C200.116 43.28 199.103 43.4 197.903 43.4C196.623 43.4 195.463 43.16 194.423 42.68C193.409 42.2 192.609 41.4667 192.023 40.48C191.436 39.4667 191.143 38.2 191.143 36.68C191.143 34.44 191.956 32.76 193.583 31.64C195.236 30.4933 197.729 29.8667 201.063 29.76L204.823 29.64V28.56C204.823 27.1733 204.489 26.1867 203.823 25.6C203.156 25.0133 202.223 24.72 201.023 24.72C199.929 24.72 198.876 24.88 197.863 25.2C196.849 25.52 195.863 25.8933 194.903 26.32L193.303 22.8C194.369 22.24 195.583 21.7867 196.943 21.44C198.329 21.0933 199.769 20.92 201.263 20.92ZM202.183 32.84C199.969 32.92 198.436 33.3067 197.583 34C196.729 34.6667 196.303 35.5733 196.303 36.72C196.303 37.7333 196.609 38.4667 197.223 38.92C197.836 39.3733 198.623 39.6 199.583 39.6C201.049 39.6 202.289 39.1867 203.303 38.36C204.316 37.5067 204.823 36.2533 204.823 34.6V32.76L202.183 32.84ZM230.898 36.72C230.898 38.16 230.552 39.3867 229.858 40.4C229.165 41.3867 228.138 42.1333 226.778 42.64C225.445 43.1467 223.805 43.4 221.858 43.4C220.338 43.4 219.032 43.2933 217.938 43.08C216.845 42.8667 215.805 42.5333 214.818 42.08V37.8C215.885 38.3067 217.072 38.7333 218.378 39.08C219.685 39.4267 220.898 39.6 222.018 39.6C223.405 39.6 224.405 39.3867 225.018 38.96C225.632 38.5333 225.938 37.96 225.938 37.24C225.938 36.8133 225.818 36.4267 225.578 36.08C225.338 35.7333 224.872 35.3733 224.178 35C223.485 34.6 222.432 34.1067 221.018 33.52C219.632 32.96 218.472 32.4 217.538 31.84C216.632 31.28 215.938 30.6133 215.458 29.84C215.005 29.04 214.778 28.04 214.778 26.84C214.778 24.8933 215.552 23.4267 217.098 22.44C218.645 21.4267 220.685 20.92 223.218 20.92C224.552 20.92 225.805 21.0533 226.978 21.32C228.178 21.56 229.378 21.96 230.578 22.52L228.978 26.24C228.312 25.9467 227.645 25.6933 226.978 25.48C226.338 25.24 225.685 25.0533 225.018 24.92C224.378 24.7867 223.725 24.72 223.058 24.72C221.965 24.72 221.138 24.8933 220.578 25.24C220.018 25.56 219.738 26.0133 219.738 26.6C219.738 27.0533 219.872 27.4533 220.138 27.8C220.432 28.12 220.925 28.4533 221.618 28.8C222.338 29.12 223.352 29.5467 224.658 30.08C225.965 30.5867 227.072 31.12 227.978 31.68C228.912 32.2133 229.632 32.88 230.138 33.68C230.645 34.48 230.898 35.4933 230.898 36.72ZM240.788 19.84C240.788 20.6933 240.748 21.5333 240.668 22.36C240.614 23.16 240.561 23.76 240.508 24.16H240.828C241.281 23.4133 241.841 22.8133 242.508 22.36C243.174 21.88 243.908 21.52 244.708 21.28C245.534 21.04 246.388 20.92 247.268 20.92C248.894 20.92 250.294 21.2 251.468 21.76C252.641 22.32 253.534 23.1867 254.148 24.36C254.788 25.5067 255.108 27.0133 255.108 28.88V43H250.068V29.88C250.068 28.2267 249.748 27 249.108 26.2C248.468 25.4 247.454 25 246.068 25C244.734 25 243.681 25.2933 242.908 25.88C242.134 26.44 241.588 27.28 241.268 28.4C240.948 29.4933 240.788 30.84 240.788 32.44V43H235.748V12.6H240.788V19.84Z" fill="#081C3C"/>
</svg>
