<svg width="192" height="42" viewBox="0 0 192 42" fill="none" xmlns="http://www.w3.org/2000/svg">
<path d="M41.175 20.55C41.175 31.8994 31.9577 41.1 20.5875 41.1C9.21734 41.1 0 31.8994 0 20.55C0 9.20055 9.21734 0 20.5875 0C31.9577 0 41.175 9.20055 41.175 20.55Z" fill="#081C3C"/>
<path d="M3.0376 22.3977C13.7825 3.29286 24.3841 37.4805 38.1376 22.3977M38.1376 22.4827C31.8188 -5.26727 14.0813 24.0952 3.0376 22.4827" stroke="#9A8F85" stroke-width="1.125" stroke-linecap="round"/>
<path d="M38.1375 22.4452C31.8187 -5.30476 14.0812 24.0577 3.03745 22.4452" stroke="#F4EFE8" stroke-width="1.125" stroke-linecap="round"/>
<path d="M38.1375 22.425C21.375 19.05 29.55 42.4125 3.03745 22.425" stroke="#E3DED7" stroke-width="1.125" stroke-linecap="round"/>
<path d="M38.1375 22.4426C32.4 15.5036 10.8187 30.4848 3.03745 22.4426" stroke="#B3475A" stroke-width="1.125" stroke-linecap="round"/>
<path d="M52.41 32V10.58H55.11V29.6H64.47V32H52.41ZM67.4224 15.92V32H64.7824V15.92H67.4224ZM66.1324 9.89C66.5324 9.89 66.8824 10.03 67.1824 10.31C67.5024 10.57 67.6624 10.99 67.6624 11.57C67.6624 12.13 67.5024 12.55 67.1824 12.83C66.8824 13.11 66.5324 13.25 66.1324 13.25C65.6924 13.25 65.3224 13.11 65.0224 12.83C64.7224 12.55 64.5724 12.13 64.5724 11.57C64.5724 10.99 64.7224 10.57 65.0224 10.31C65.3224 10.03 65.6924 9.89 66.1324 9.89ZM77.2568 15.62C79.1768 15.62 80.6268 16.09 81.6068 17.03C82.5868 17.95 83.0768 19.45 83.0768 21.53V32H80.4668V21.71C80.4668 20.41 80.1768 19.44 79.5968 18.8C79.0168 18.16 78.1068 17.84 76.8668 17.84C75.0868 17.84 73.8568 18.34 73.1768 19.34C72.4968 20.34 72.1568 21.78 72.1568 23.66V32H69.5168V15.92H71.6468L72.0368 18.11H72.1868C72.5468 17.55 72.9868 17.09 73.5068 16.73C74.0468 16.35 74.6368 16.07 75.2768 15.89C75.9168 15.71 76.5768 15.62 77.2568 15.62ZM90.7617 15.62C91.8217 15.62 92.7717 15.82 93.6117 16.22C94.4717 16.62 95.2017 17.23 95.8017 18.05H95.9517L96.3117 15.92H98.4117V32.27C98.4117 33.79 98.1517 35.06 97.6317 36.08C97.1117 37.12 96.3217 37.9 95.2617 38.42C94.2017 38.94 92.8517 39.2 91.2117 39.2C90.0517 39.2 88.9817 39.11 88.0017 38.93C87.0417 38.77 86.1817 38.52 85.4217 38.18V35.75C85.9417 36.01 86.5117 36.23 87.1317 36.41C87.7517 36.61 88.4217 36.76 89.1417 36.86C89.8617 36.96 90.6017 37.01 91.3617 37.01C92.7417 37.01 93.8217 36.6 94.6017 35.78C95.4017 34.98 95.8017 33.88 95.8017 32.48V31.85C95.8017 31.61 95.8117 31.27 95.8317 30.83C95.8517 30.37 95.8717 30.05 95.8917 29.87H95.7717C95.2117 30.69 94.5117 31.3 93.6717 31.7C92.8517 32.1 91.8917 32.3 90.7917 32.3C88.7117 32.3 87.0817 31.57 85.9017 30.11C84.7417 28.65 84.1617 26.61 84.1617 23.99C84.1617 22.27 84.4217 20.79 84.9417 19.55C85.4817 18.29 86.2417 17.32 87.2217 16.64C88.2017 15.96 89.3817 15.62 90.7617 15.62ZM91.1217 17.84C90.2217 17.84 89.4517 18.08 88.8117 18.56C88.1917 19.04 87.7117 19.74 87.3717 20.66C87.0517 21.58 86.8917 22.7 86.8917 24.02C86.8917 26 87.2517 27.52 87.9717 28.58C88.7117 29.62 89.7817 30.14 91.1817 30.14C92.0017 30.14 92.7017 30.04 93.2817 29.84C93.8617 29.62 94.3417 29.29 94.7217 28.85C95.1017 28.39 95.3817 27.81 95.5617 27.11C95.7417 26.41 95.8317 25.58 95.8317 24.62V23.99C95.8317 22.53 95.6617 21.35 95.3217 20.45C95.0017 19.55 94.4917 18.89 93.7917 18.47C93.0917 18.05 92.2017 17.84 91.1217 17.84ZM113.959 15.92V32H111.799L111.409 29.87H111.289C110.949 30.43 110.509 30.89 109.969 31.25C109.429 31.61 108.839 31.87 108.199 32.03C107.559 32.21 106.889 32.3 106.189 32.3C104.909 32.3 103.829 32.1 102.949 31.7C102.089 31.28 101.439 30.64 100.999 29.78C100.559 28.92 100.339 27.81 100.339 26.45V15.92H103.009V26.27C103.009 27.55 103.299 28.51 103.879 29.15C104.459 29.79 105.359 30.11 106.579 30.11C107.779 30.11 108.719 29.89 109.399 29.45C110.099 28.99 110.589 28.33 110.869 27.47C111.169 26.59 111.319 25.53 111.319 24.29V15.92H113.959ZM122.154 15.65C124.114 15.65 125.564 16.08 126.504 16.94C127.444 17.8 127.914 19.17 127.914 21.05V32H125.994L125.484 29.72H125.364C124.904 30.3 124.424 30.79 123.924 31.19C123.444 31.57 122.884 31.85 122.244 32.03C121.624 32.21 120.864 32.3 119.964 32.3C119.004 32.3 118.134 32.13 117.354 31.79C116.594 31.45 115.994 30.93 115.554 30.23C115.114 29.51 114.894 28.61 114.894 27.53C114.894 25.93 115.524 24.7 116.784 23.84C118.044 22.96 119.984 22.48 122.604 22.4L125.334 22.31V21.35C125.334 20.01 125.044 19.08 124.464 18.56C123.884 18.04 123.064 17.78 122.004 17.78C121.164 17.78 120.364 17.91 119.604 18.17C118.844 18.41 118.134 18.69 117.474 19.01L116.664 17.03C117.364 16.65 118.194 16.33 119.154 16.07C120.114 15.79 121.114 15.65 122.154 15.65ZM122.934 24.23C120.934 24.31 119.544 24.63 118.764 25.19C118.004 25.75 117.624 26.54 117.624 27.56C117.624 28.46 117.894 29.12 118.434 29.54C118.994 29.96 119.704 30.17 120.564 30.17C121.924 30.17 123.054 29.8 123.954 29.06C124.854 28.3 125.304 27.14 125.304 25.58V24.14L122.934 24.23ZM137.8 32H133.96V13.82H127.81V10.58H143.95V13.82H137.8V32ZM150.947 15.44C153.047 15.44 154.637 15.9 155.717 16.82C156.817 17.72 157.367 19.14 157.367 21.08V32H154.697L153.947 29.75H153.827C153.367 30.33 152.887 30.82 152.387 31.22C151.907 31.6 151.347 31.87 150.707 32.03C150.087 32.21 149.327 32.3 148.427 32.3C147.467 32.3 146.597 32.12 145.817 31.76C145.057 31.4 144.457 30.85 144.017 30.11C143.577 29.35 143.357 28.4 143.357 27.26C143.357 25.58 143.967 24.32 145.187 23.48C146.427 22.62 148.297 22.15 150.797 22.07L153.617 21.98V21.17C153.617 20.13 153.367 19.39 152.867 18.95C152.367 18.51 151.667 18.29 150.767 18.29C149.947 18.29 149.157 18.41 148.397 18.65C147.637 18.89 146.897 19.17 146.177 19.49L144.977 16.85C145.777 16.43 146.687 16.09 147.707 15.83C148.747 15.57 149.827 15.44 150.947 15.44ZM151.637 24.38C149.977 24.44 148.827 24.73 148.187 25.25C147.547 25.75 147.227 26.43 147.227 27.29C147.227 28.05 147.457 28.6 147.917 28.94C148.377 29.28 148.967 29.45 149.687 29.45C150.787 29.45 151.717 29.14 152.477 28.52C153.237 27.88 153.617 26.94 153.617 25.7V24.32L151.637 24.38ZM173.174 27.29C173.174 28.37 172.914 29.29 172.394 30.05C171.874 30.79 171.104 31.35 170.084 31.73C169.084 32.11 167.854 32.3 166.394 32.3C165.254 32.3 164.274 32.22 163.454 32.06C162.634 31.9 161.854 31.65 161.114 31.31V28.1C161.914 28.48 162.804 28.8 163.784 29.06C164.764 29.32 165.674 29.45 166.514 29.45C167.554 29.45 168.304 29.29 168.764 28.97C169.224 28.65 169.454 28.22 169.454 27.68C169.454 27.36 169.364 27.07 169.184 26.81C169.004 26.55 168.654 26.28 168.134 26C167.614 25.7 166.824 25.33 165.764 24.89C164.724 24.47 163.854 24.05 163.154 23.63C162.474 23.21 161.954 22.71 161.594 22.13C161.254 21.53 161.084 20.78 161.084 19.88C161.084 18.42 161.664 17.32 162.824 16.58C163.984 15.82 165.514 15.44 167.414 15.44C168.414 15.44 169.354 15.54 170.234 15.74C171.134 15.92 172.034 16.22 172.934 16.64L171.734 19.43C171.234 19.21 170.734 19.02 170.234 18.86C169.754 18.68 169.264 18.54 168.764 18.44C168.284 18.34 167.794 18.29 167.294 18.29C166.474 18.29 165.854 18.42 165.434 18.68C165.014 18.92 164.804 19.26 164.804 19.7C164.804 20.04 164.904 20.34 165.104 20.6C165.324 20.84 165.694 21.09 166.214 21.35C166.754 21.59 167.514 21.91 168.494 22.31C169.474 22.69 170.304 23.09 170.984 23.51C171.684 23.91 172.224 24.41 172.604 25.01C172.984 25.61 173.174 26.37 173.174 27.29ZM180.591 14.63C180.591 15.27 180.561 15.9 180.501 16.52C180.461 17.12 180.421 17.57 180.381 17.87H180.621C180.961 17.31 181.381 16.86 181.881 16.52C182.381 16.16 182.931 15.89 183.531 15.71C184.151 15.53 184.791 15.44 185.451 15.44C186.671 15.44 187.721 15.65 188.601 16.07C189.481 16.49 190.151 17.14 190.611 18.02C191.091 18.88 191.331 20.01 191.331 21.41V32H187.551V22.16C187.551 20.92 187.311 20 186.831 19.4C186.351 18.8 185.591 18.5 184.551 18.5C183.551 18.5 182.761 18.72 182.181 19.16C181.601 19.58 181.191 20.21 180.951 21.05C180.711 21.87 180.591 22.88 180.591 24.08V32H176.811V9.2H180.591V14.63Z" fill="#081C3C"/>
</svg>
