<svg width="5103" height="1096" viewBox="0 0 5103 1096" fill="none" xmlns="http://www.w3.org/2000/svg">
<rect width="5103" height="1096" fill="#F5F5F5"/>
<ellipse cx="549" cy="548" rx="549" ry="548" fill="#081C3C"/>
<path d="M81 597.273C367.53 87.8097 650.241 999.48 1017 597.273M1017 599.539C848.5 -140.46 375.5 642.539 81 599.539" stroke="#9A8F85" stroke-width="30" stroke-linecap="round"/>
<path d="M1017 598.539C848.5 -141.461 375.5 641.539 81 598.539" stroke="#F4EFE8" stroke-width="30" stroke-linecap="round"/>
<path d="M1017 598C570 508 788 1131 81 598" stroke="#E3DED7" stroke-width="30" stroke-linecap="round"/>
<path d="M1017 598.469C864 413.429 288.5 812.929 81 598.469" stroke="#B3475A" stroke-width="30" stroke-linecap="round"/>
<path d="M1397.6 855V283.8H1469.6V791H1719.2V855H1397.6ZM1797.93 426.2V855H1727.53V426.2H1797.93ZM1763.53 265.4C1774.2 265.4 1783.53 269.133 1791.53 276.6C1800.06 283.533 1804.33 294.733 1804.33 310.2C1804.33 325.133 1800.06 336.333 1791.53 343.8C1783.53 351.267 1774.2 355 1763.53 355C1751.8 355 1741.93 351.267 1733.93 343.8C1725.93 336.333 1721.93 325.133 1721.93 310.2C1721.93 294.733 1725.93 283.533 1733.93 276.6C1741.93 269.133 1751.8 265.4 1763.53 265.4ZM2060.18 418.2C2111.38 418.2 2150.05 430.733 2176.18 455.8C2202.31 480.333 2215.38 520.333 2215.38 575.8V855H2145.78V580.6C2145.78 545.933 2138.05 520.067 2122.58 503C2107.11 485.933 2082.85 477.4 2049.78 477.4C2002.31 477.4 1969.51 490.733 1951.38 517.4C1933.25 544.067 1924.18 582.467 1924.18 632.6V855H1853.78V426.2H1910.58L1920.98 484.6H1924.98C1934.58 469.667 1946.31 457.4 1960.18 447.8C1974.58 437.667 1990.31 430.2 2007.38 425.4C2024.45 420.6 2042.05 418.2 2060.18 418.2ZM2420.31 418.2C2448.58 418.2 2473.91 423.533 2496.31 434.2C2519.25 444.867 2538.71 461.133 2554.71 483H2558.71L2568.31 426.2H2624.31V862.2C2624.31 902.733 2617.38 936.6 2603.51 963.8C2589.65 991.533 2568.58 1012.33 2540.31 1026.2C2512.05 1040.07 2476.05 1047 2432.31 1047C2401.38 1047 2372.85 1044.6 2346.71 1039.8C2321.11 1035.53 2298.18 1028.87 2277.91 1019.8V955C2291.78 961.933 2306.98 967.8 2323.51 972.6C2340.05 977.933 2357.91 981.933 2377.11 984.6C2396.31 987.267 2416.05 988.6 2436.31 988.6C2473.11 988.6 2501.91 977.667 2522.71 955.8C2544.05 934.467 2554.71 905.133 2554.71 867.8V851C2554.71 844.6 2554.98 835.533 2555.51 823.8C2556.05 811.533 2556.58 803 2557.11 798.2H2553.91C2538.98 820.067 2520.31 836.333 2497.91 847C2476.05 857.667 2450.45 863 2421.11 863C2365.65 863 2322.18 843.533 2290.71 804.6C2259.78 765.667 2244.31 711.267 2244.31 641.4C2244.31 595.533 2251.25 556.067 2265.11 523C2279.51 489.4 2299.78 463.533 2325.91 445.4C2352.05 427.267 2383.51 418.2 2420.31 418.2ZM2429.91 477.4C2405.91 477.4 2385.38 483.8 2368.31 496.6C2351.78 509.4 2338.98 528.067 2329.91 552.6C2321.38 577.133 2317.11 607 2317.11 642.2C2317.11 695 2326.71 735.533 2345.91 763.8C2365.65 791.533 2394.18 805.4 2431.51 805.4C2453.38 805.4 2472.05 802.733 2487.51 797.4C2502.98 791.533 2515.78 782.733 2525.91 771C2536.05 758.733 2543.51 743.267 2548.31 724.6C2553.11 705.933 2555.51 683.8 2555.51 658.2V641.4C2555.51 602.467 2550.98 571 2541.91 547C2533.38 523 2519.78 505.4 2501.11 494.2C2482.45 483 2458.71 477.4 2429.91 477.4ZM3038.9 426.2V855H2981.3L2970.9 798.2H2967.7C2958.63 813.133 2946.9 825.4 2932.5 835C2918.1 844.6 2902.37 851.533 2885.3 855.8C2868.23 860.6 2850.37 863 2831.7 863C2797.57 863 2768.77 857.667 2745.3 847C2722.37 835.8 2705.03 818.733 2693.3 795.8C2681.57 772.867 2675.7 743.267 2675.7 707V426.2H2746.9V702.2C2746.9 736.333 2754.63 761.933 2770.1 779C2785.57 796.067 2809.57 804.6 2842.1 804.6C2874.1 804.6 2899.17 798.733 2917.3 787C2935.97 774.733 2949.03 757.133 2956.5 734.2C2964.5 710.733 2968.5 682.467 2968.5 649.4V426.2H3038.9ZM3257.43 419C3309.7 419 3348.36 430.467 3373.43 453.4C3398.5 476.333 3411.03 512.867 3411.03 563V855H3359.83L3346.23 794.2H3343.03C3330.76 809.667 3317.96 822.733 3304.63 833.4C3291.83 843.533 3276.9 851 3259.83 855.8C3243.3 860.6 3223.03 863 3199.03 863C3173.43 863 3150.23 858.467 3129.43 849.4C3109.16 840.333 3093.16 826.467 3081.43 807.8C3069.7 788.6 3063.83 764.6 3063.83 735.8C3063.83 693.133 3080.63 660.333 3114.23 637.4C3147.83 613.933 3199.56 601.133 3269.43 599L3342.23 596.6V571C3342.23 535.267 3334.5 510.467 3319.03 496.6C3303.56 482.733 3281.7 475.8 3253.43 475.8C3231.03 475.8 3209.7 479.267 3189.43 486.2C3169.16 492.6 3150.23 500.067 3132.63 508.6L3111.03 455.8C3129.7 445.667 3151.83 437.133 3177.43 430.2C3203.03 422.733 3229.7 419 3257.43 419ZM3278.23 647.8C3224.9 649.933 3187.83 658.467 3167.03 673.4C3146.76 688.333 3136.63 709.4 3136.63 736.6C3136.63 760.6 3143.83 778.2 3158.23 789.4C3173.16 800.6 3192.1 806.2 3215.03 806.2C3251.3 806.2 3281.43 796.333 3305.43 776.6C3329.43 756.333 3341.43 725.4 3341.43 683.8V645.4L3278.23 647.8ZM3674.67 855H3572.27V370.2H3408.27V283.8H3838.67V370.2H3674.67V855ZM4025.26 413.4C4081.26 413.4 4123.66 425.667 4152.46 450.2C4181.79 474.2 4196.46 512.067 4196.46 563.8V855H4125.26L4105.26 795H4102.06C4089.79 810.467 4076.99 823.533 4063.66 834.2C4050.86 844.333 4035.92 851.533 4018.86 855.8C4002.32 860.6 3982.06 863 3958.06 863C3932.46 863 3909.26 858.2 3888.46 848.6C3868.19 839 3852.19 824.333 3840.46 804.6C3828.72 784.333 3822.86 759 3822.86 728.6C3822.86 683.8 3839.12 650.2 3871.66 627.8C3904.72 604.867 3954.59 592.333 4021.26 590.2L4096.46 587.8V566.2C4096.46 538.467 4089.79 518.733 4076.46 507C4063.12 495.267 4044.46 489.4 4020.46 489.4C3998.59 489.4 3977.52 492.6 3957.26 499C3936.99 505.4 3917.26 512.867 3898.06 521.4L3866.06 451C3887.39 439.8 3911.66 430.733 3938.86 423.8C3966.59 416.867 3995.39 413.4 4025.26 413.4ZM4043.66 651.8C3999.39 653.4 3968.72 661.133 3951.66 675C3934.59 688.333 3926.06 706.467 3926.06 729.4C3926.06 749.667 3932.19 764.333 3944.46 773.4C3956.72 782.467 3972.46 787 3991.66 787C4020.99 787 4045.79 778.733 4066.06 762.2C4086.32 745.133 4096.46 720.067 4096.46 687V650.2L4043.66 651.8ZM4617.97 729.4C4617.97 758.2 4611.04 782.733 4597.17 803C4583.3 822.733 4562.77 837.667 4535.57 847.8C4508.9 857.933 4476.1 863 4437.17 863C4406.77 863 4380.64 860.867 4358.77 856.6C4336.9 852.333 4316.1 845.667 4296.37 836.6V751C4317.7 761.133 4341.44 769.667 4367.57 776.6C4393.7 783.533 4417.97 787 4440.37 787C4468.1 787 4488.1 782.733 4500.37 774.2C4512.64 765.667 4518.77 754.2 4518.77 739.8C4518.77 731.267 4516.37 723.533 4511.57 716.6C4506.77 709.667 4497.44 702.467 4483.57 695C4469.7 687 4448.64 677.133 4420.37 665.4C4392.64 654.2 4369.44 643 4350.77 631.8C4332.64 620.6 4318.77 607.267 4309.17 591.8C4300.1 575.8 4295.57 555.8 4295.57 531.8C4295.57 492.867 4311.04 463.533 4341.97 443.8C4372.9 423.533 4413.7 413.4 4464.37 413.4C4491.04 413.4 4516.1 416.067 4539.57 421.4C4563.57 426.2 4587.57 434.2 4611.57 445.4L4579.57 519.8C4566.24 513.933 4552.9 508.867 4539.57 504.6C4526.77 499.8 4513.7 496.067 4500.37 493.4C4487.57 490.733 4474.5 489.4 4461.17 489.4C4439.3 489.4 4422.77 492.867 4411.57 499.8C4400.37 506.2 4394.77 515.267 4394.77 527C4394.77 536.067 4397.44 544.067 4402.77 551C4408.64 557.4 4418.5 564.067 4432.37 571C4446.77 577.4 4467.04 585.933 4493.17 596.6C4519.3 606.733 4541.44 617.4 4559.57 628.6C4578.24 639.267 4592.64 652.6 4602.77 668.6C4612.9 684.6 4617.97 704.867 4617.97 729.4ZM4815.76 391.8C4815.76 408.867 4814.96 425.667 4813.36 442.2C4812.29 458.2 4811.22 470.2 4810.16 478.2H4816.56C4825.62 463.267 4836.82 451.267 4850.16 442.2C4863.49 432.6 4878.16 425.4 4894.16 420.6C4910.69 415.8 4927.76 413.4 4945.36 413.4C4977.89 413.4 5005.89 419 5029.36 430.2C5052.82 441.4 5070.69 458.733 5082.96 482.2C5095.76 505.133 5102.16 535.267 5102.16 572.6V855H5001.36V592.6C5001.36 559.533 4994.96 535 4982.16 519C4969.36 503 4949.09 495 4921.36 495C4894.69 495 4873.62 500.867 4858.16 512.6C4842.69 523.8 4831.76 540.6 4825.36 563C4818.96 584.867 4815.76 611.8 4815.76 643.8V855H4714.96V247H4815.76V391.8Z" fill="#081C3C"/>
</svg>
