<svg width="194" height="44" viewBox="0 0 194 44" fill="none" xmlns="http://www.w3.org/2000/svg">
<path d="M21.5879 0.5C33.2331 0.50021 42.6747 9.92357 42.6748 21.5498C42.6748 33.1761 33.2332 42.5994 21.5879 42.5996C9.94245 42.5996 0.5 33.1763 0.5 21.5498C0.500105 9.92344 9.94251 0.5 21.5879 0.5Z" fill="#081C3C" stroke="#F4EFE8"/>
<path d="M4.0376 23.3977C14.7825 4.29286 25.3841 38.4805 39.1376 23.3977M39.1376 23.4827C32.8188 -4.26727 15.0813 25.0952 4.0376 23.4827" stroke="#9A8F85" stroke-width="1.125" stroke-linecap="round"/>
<path d="M39.1375 23.4452C32.8187 -4.30476 15.0812 25.0577 4.03745 23.4452" stroke="#F4EFE8" stroke-width="1.125" stroke-linecap="round"/>
<path d="M39.1375 23.425C22.375 20.05 30.55 43.4125 4.03745 23.425" stroke="#E3DED7" stroke-width="1.125" stroke-linecap="round"/>
<path d="M39.1375 23.4426C33.4 16.5036 11.8187 31.4848 4.03745 23.4426" stroke="#B3475A" stroke-width="1.125" stroke-linecap="round"/>
<mask id="path-6-outside-1_0_1" maskUnits="userSpaceOnUse" x="51.5" y="9" width="142" height="33" fill="black">
<rect fill="white" x="51.5" y="9" width="142" height="33"/>
<path d="M53.41 33V11.58H56.11V30.6H65.47V33H53.41ZM68.4224 16.92V33H65.7824V16.92H68.4224ZM67.1324 10.89C67.5324 10.89 67.8824 11.03 68.1824 11.31C68.5024 11.57 68.6624 11.99 68.6624 12.57C68.6624 13.13 68.5024 13.55 68.1824 13.83C67.8824 14.11 67.5324 14.25 67.1324 14.25C66.6924 14.25 66.3224 14.11 66.0224 13.83C65.7224 13.55 65.5724 13.13 65.5724 12.57C65.5724 11.99 65.7224 11.57 66.0224 11.31C66.3224 11.03 66.6924 10.89 67.1324 10.89ZM78.2568 16.62C80.1768 16.62 81.6268 17.09 82.6068 18.03C83.5868 18.95 84.0768 20.45 84.0768 22.53V33H81.4668V22.71C81.4668 21.41 81.1768 20.44 80.5968 19.8C80.0168 19.16 79.1068 18.84 77.8668 18.84C76.0868 18.84 74.8568 19.34 74.1768 20.34C73.4968 21.34 73.1568 22.78 73.1568 24.66V33H70.5168V16.92H72.6468L73.0368 19.11H73.1868C73.5468 18.55 73.9868 18.09 74.5068 17.73C75.0468 17.35 75.6368 17.07 76.2768 16.89C76.9168 16.71 77.5768 16.62 78.2568 16.62ZM91.7617 16.62C92.8217 16.62 93.7717 16.82 94.6117 17.22C95.4717 17.62 96.2017 18.23 96.8017 19.05H96.9517L97.3117 16.92H99.4117V33.27C99.4117 34.79 99.1517 36.06 98.6317 37.08C98.1117 38.12 97.3217 38.9 96.2617 39.42C95.2017 39.94 93.8517 40.2 92.2117 40.2C91.0517 40.2 89.9817 40.11 89.0017 39.93C88.0417 39.77 87.1817 39.52 86.4217 39.18V36.75C86.9417 37.01 87.5117 37.23 88.1317 37.41C88.7517 37.61 89.4217 37.76 90.1417 37.86C90.8617 37.96 91.6017 38.01 92.3617 38.01C93.7417 38.01 94.8217 37.6 95.6017 36.78C96.4017 35.98 96.8017 34.88 96.8017 33.48V32.85C96.8017 32.61 96.8117 32.27 96.8317 31.83C96.8517 31.37 96.8717 31.05 96.8917 30.87H96.7717C96.2117 31.69 95.5117 32.3 94.6717 32.7C93.8517 33.1 92.8917 33.3 91.7917 33.3C89.7117 33.3 88.0817 32.57 86.9017 31.11C85.7417 29.65 85.1617 27.61 85.1617 24.99C85.1617 23.27 85.4217 21.79 85.9417 20.55C86.4817 19.29 87.2417 18.32 88.2217 17.64C89.2017 16.96 90.3817 16.62 91.7617 16.62ZM92.1217 18.84C91.2217 18.84 90.4517 19.08 89.8117 19.56C89.1917 20.04 88.7117 20.74 88.3717 21.66C88.0517 22.58 87.8917 23.7 87.8917 25.02C87.8917 27 88.2517 28.52 88.9717 29.58C89.7117 30.62 90.7817 31.14 92.1817 31.14C93.0017 31.14 93.7017 31.04 94.2817 30.84C94.8617 30.62 95.3417 30.29 95.7217 29.85C96.1017 29.39 96.3817 28.81 96.5617 28.11C96.7417 27.41 96.8317 26.58 96.8317 25.62V24.99C96.8317 23.53 96.6617 22.35 96.3217 21.45C96.0017 20.55 95.4917 19.89 94.7917 19.47C94.0917 19.05 93.2017 18.84 92.1217 18.84ZM114.959 16.92V33H112.799L112.409 30.87H112.289C111.949 31.43 111.509 31.89 110.969 32.25C110.429 32.61 109.839 32.87 109.199 33.03C108.559 33.21 107.889 33.3 107.189 33.3C105.909 33.3 104.829 33.1 103.949 32.7C103.089 32.28 102.439 31.64 101.999 30.78C101.559 29.92 101.339 28.81 101.339 27.45V16.92H104.009V27.27C104.009 28.55 104.299 29.51 104.879 30.15C105.459 30.79 106.359 31.11 107.579 31.11C108.779 31.11 109.719 30.89 110.399 30.45C111.099 29.99 111.589 29.33 111.869 28.47C112.169 27.59 112.319 26.53 112.319 25.29V16.92H114.959ZM123.154 16.65C125.114 16.65 126.564 17.08 127.504 17.94C128.444 18.8 128.914 20.17 128.914 22.05V33H126.994L126.484 30.72H126.364C125.904 31.3 125.424 31.79 124.924 32.19C124.444 32.57 123.884 32.85 123.244 33.03C122.624 33.21 121.864 33.3 120.964 33.3C120.004 33.3 119.134 33.13 118.354 32.79C117.594 32.45 116.994 31.93 116.554 31.23C116.114 30.51 115.894 29.61 115.894 28.53C115.894 26.93 116.524 25.7 117.784 24.84C119.044 23.96 120.984 23.48 123.604 23.4L126.334 23.31V22.35C126.334 21.01 126.044 20.08 125.464 19.56C124.884 19.04 124.064 18.78 123.004 18.78C122.164 18.78 121.364 18.91 120.604 19.17C119.844 19.41 119.134 19.69 118.474 20.01L117.664 18.03C118.364 17.65 119.194 17.33 120.154 17.07C121.114 16.79 122.114 16.65 123.154 16.65ZM123.934 25.23C121.934 25.31 120.544 25.63 119.764 26.19C119.004 26.75 118.624 27.54 118.624 28.56C118.624 29.46 118.894 30.12 119.434 30.54C119.994 30.96 120.704 31.17 121.564 31.17C122.924 31.17 124.054 30.8 124.954 30.06C125.854 29.3 126.304 28.14 126.304 26.58V25.14L123.934 25.23ZM138.8 33H134.96V14.82H128.81V11.58H144.95V14.82H138.8V33ZM151.947 16.44C154.047 16.44 155.637 16.9 156.717 17.82C157.817 18.72 158.367 20.14 158.367 22.08V33H155.697L154.947 30.75H154.827C154.367 31.33 153.887 31.82 153.387 32.22C152.907 32.6 152.347 32.87 151.707 33.03C151.087 33.21 150.327 33.3 149.427 33.3C148.467 33.3 147.597 33.12 146.817 32.76C146.057 32.4 145.457 31.85 145.017 31.11C144.577 30.35 144.357 29.4 144.357 28.26C144.357 26.58 144.967 25.32 146.187 24.48C147.427 23.62 149.297 23.15 151.797 23.07L154.617 22.98V22.17C154.617 21.13 154.367 20.39 153.867 19.95C153.367 19.51 152.667 19.29 151.767 19.29C150.947 19.29 150.157 19.41 149.397 19.65C148.637 19.89 147.897 20.17 147.177 20.49L145.977 17.85C146.777 17.43 147.687 17.09 148.707 16.83C149.747 16.57 150.827 16.44 151.947 16.44ZM152.637 25.38C150.977 25.44 149.827 25.73 149.187 26.25C148.547 26.75 148.227 27.43 148.227 28.29C148.227 29.05 148.457 29.6 148.917 29.94C149.377 30.28 149.967 30.45 150.687 30.45C151.787 30.45 152.717 30.14 153.477 29.52C154.237 28.88 154.617 27.94 154.617 26.7V25.32L152.637 25.38ZM174.174 28.29C174.174 29.37 173.914 30.29 173.394 31.05C172.874 31.79 172.104 32.35 171.084 32.73C170.084 33.11 168.854 33.3 167.394 33.3C166.254 33.3 165.274 33.22 164.454 33.06C163.634 32.9 162.854 32.65 162.114 32.31V29.1C162.914 29.48 163.804 29.8 164.784 30.06C165.764 30.32 166.674 30.45 167.514 30.45C168.554 30.45 169.304 30.29 169.764 29.97C170.224 29.65 170.454 29.22 170.454 28.68C170.454 28.36 170.364 28.07 170.184 27.81C170.004 27.55 169.654 27.28 169.134 27C168.614 26.7 167.824 26.33 166.764 25.89C165.724 25.47 164.854 25.05 164.154 24.63C163.474 24.21 162.954 23.71 162.594 23.13C162.254 22.53 162.084 21.78 162.084 20.88C162.084 19.42 162.664 18.32 163.824 17.58C164.984 16.82 166.514 16.44 168.414 16.44C169.414 16.44 170.354 16.54 171.234 16.74C172.134 16.92 173.034 17.22 173.934 17.64L172.734 20.43C172.234 20.21 171.734 20.02 171.234 19.86C170.754 19.68 170.264 19.54 169.764 19.44C169.284 19.34 168.794 19.29 168.294 19.29C167.474 19.29 166.854 19.42 166.434 19.68C166.014 19.92 165.804 20.26 165.804 20.7C165.804 21.04 165.904 21.34 166.104 21.6C166.324 21.84 166.694 22.09 167.214 22.35C167.754 22.59 168.514 22.91 169.494 23.31C170.474 23.69 171.304 24.09 171.984 24.51C172.684 24.91 173.224 25.41 173.604 26.01C173.984 26.61 174.174 27.37 174.174 28.29ZM181.591 15.63C181.591 16.27 181.561 16.9 181.501 17.52C181.461 18.12 181.421 18.57 181.381 18.87H181.621C181.961 18.31 182.381 17.86 182.881 17.52C183.381 17.16 183.931 16.89 184.531 16.71C185.151 16.53 185.791 16.44 186.451 16.44C187.671 16.44 188.721 16.65 189.601 17.07C190.481 17.49 191.151 18.14 191.611 19.02C192.091 19.88 192.331 21.01 192.331 22.41V33H188.551V23.16C188.551 21.92 188.311 21 187.831 20.4C187.351 19.8 186.591 19.5 185.551 19.5C184.551 19.5 183.761 19.72 183.181 20.16C182.601 20.58 182.191 21.21 181.951 22.05C181.711 22.87 181.591 23.88 181.591 25.08V33H177.811V10.2H181.591V15.63Z"/>
</mask>
<path d="M53.41 33V11.58H56.11V30.6H65.47V33H53.41ZM68.4224 16.92V33H65.7824V16.92H68.4224ZM67.1324 10.89C67.5324 10.89 67.8824 11.03 68.1824 11.31C68.5024 11.57 68.6624 11.99 68.6624 12.57C68.6624 13.13 68.5024 13.55 68.1824 13.83C67.8824 14.11 67.5324 14.25 67.1324 14.25C66.6924 14.25 66.3224 14.11 66.0224 13.83C65.7224 13.55 65.5724 13.13 65.5724 12.57C65.5724 11.99 65.7224 11.57 66.0224 11.31C66.3224 11.03 66.6924 10.89 67.1324 10.89ZM78.2568 16.62C80.1768 16.62 81.6268 17.09 82.6068 18.03C83.5868 18.95 84.0768 20.45 84.0768 22.53V33H81.4668V22.71C81.4668 21.41 81.1768 20.44 80.5968 19.8C80.0168 19.16 79.1068 18.84 77.8668 18.84C76.0868 18.84 74.8568 19.34 74.1768 20.34C73.4968 21.34 73.1568 22.78 73.1568 24.66V33H70.5168V16.92H72.6468L73.0368 19.11H73.1868C73.5468 18.55 73.9868 18.09 74.5068 17.73C75.0468 17.35 75.6368 17.07 76.2768 16.89C76.9168 16.71 77.5768 16.62 78.2568 16.62ZM91.7617 16.62C92.8217 16.62 93.7717 16.82 94.6117 17.22C95.4717 17.62 96.2017 18.23 96.8017 19.05H96.9517L97.3117 16.92H99.4117V33.27C99.4117 34.79 99.1517 36.06 98.6317 37.08C98.1117 38.12 97.3217 38.9 96.2617 39.42C95.2017 39.94 93.8517 40.2 92.2117 40.2C91.0517 40.2 89.9817 40.11 89.0017 39.93C88.0417 39.77 87.1817 39.52 86.4217 39.18V36.75C86.9417 37.01 87.5117 37.23 88.1317 37.41C88.7517 37.61 89.4217 37.76 90.1417 37.86C90.8617 37.96 91.6017 38.01 92.3617 38.01C93.7417 38.01 94.8217 37.6 95.6017 36.78C96.4017 35.98 96.8017 34.88 96.8017 33.48V32.85C96.8017 32.61 96.8117 32.27 96.8317 31.83C96.8517 31.37 96.8717 31.05 96.8917 30.87H96.7717C96.2117 31.69 95.5117 32.3 94.6717 32.7C93.8517 33.1 92.8917 33.3 91.7917 33.3C89.7117 33.3 88.0817 32.57 86.9017 31.11C85.7417 29.65 85.1617 27.61 85.1617 24.99C85.1617 23.27 85.4217 21.79 85.9417 20.55C86.4817 19.29 87.2417 18.32 88.2217 17.64C89.2017 16.96 90.3817 16.62 91.7617 16.62ZM92.1217 18.84C91.2217 18.84 90.4517 19.08 89.8117 19.56C89.1917 20.04 88.7117 20.74 88.3717 21.66C88.0517 22.58 87.8917 23.7 87.8917 25.02C87.8917 27 88.2517 28.52 88.9717 29.58C89.7117 30.62 90.7817 31.14 92.1817 31.14C93.0017 31.14 93.7017 31.04 94.2817 30.84C94.8617 30.62 95.3417 30.29 95.7217 29.85C96.1017 29.39 96.3817 28.81 96.5617 28.11C96.7417 27.41 96.8317 26.58 96.8317 25.62V24.99C96.8317 23.53 96.6617 22.35 96.3217 21.45C96.0017 20.55 95.4917 19.89 94.7917 19.47C94.0917 19.05 93.2017 18.84 92.1217 18.84ZM114.959 16.92V33H112.799L112.409 30.87H112.289C111.949 31.43 111.509 31.89 110.969 32.25C110.429 32.61 109.839 32.87 109.199 33.03C108.559 33.21 107.889 33.3 107.189 33.3C105.909 33.3 104.829 33.1 103.949 32.7C103.089 32.28 102.439 31.64 101.999 30.78C101.559 29.92 101.339 28.81 101.339 27.45V16.92H104.009V27.27C104.009 28.55 104.299 29.51 104.879 30.15C105.459 30.79 106.359 31.11 107.579 31.11C108.779 31.11 109.719 30.89 110.399 30.45C111.099 29.99 111.589 29.33 111.869 28.47C112.169 27.59 112.319 26.53 112.319 25.29V16.92H114.959ZM123.154 16.65C125.114 16.65 126.564 17.08 127.504 17.94C128.444 18.8 128.914 20.17 128.914 22.05V33H126.994L126.484 30.72H126.364C125.904 31.3 125.424 31.79 124.924 32.19C124.444 32.57 123.884 32.85 123.244 33.03C122.624 33.21 121.864 33.3 120.964 33.3C120.004 33.3 119.134 33.13 118.354 32.79C117.594 32.45 116.994 31.93 116.554 31.23C116.114 30.51 115.894 29.61 115.894 28.53C115.894 26.93 116.524 25.7 117.784 24.84C119.044 23.96 120.984 23.48 123.604 23.4L126.334 23.31V22.35C126.334 21.01 126.044 20.08 125.464 19.56C124.884 19.04 124.064 18.78 123.004 18.78C122.164 18.78 121.364 18.91 120.604 19.17C119.844 19.41 119.134 19.69 118.474 20.01L117.664 18.03C118.364 17.65 119.194 17.33 120.154 17.07C121.114 16.79 122.114 16.65 123.154 16.65ZM123.934 25.23C121.934 25.31 120.544 25.63 119.764 26.19C119.004 26.75 118.624 27.54 118.624 28.56C118.624 29.46 118.894 30.12 119.434 30.54C119.994 30.96 120.704 31.17 121.564 31.17C122.924 31.17 124.054 30.8 124.954 30.06C125.854 29.3 126.304 28.14 126.304 26.58V25.14L123.934 25.23ZM138.8 33H134.96V14.82H128.81V11.58H144.95V14.82H138.8V33ZM151.947 16.44C154.047 16.44 155.637 16.9 156.717 17.82C157.817 18.72 158.367 20.14 158.367 22.08V33H155.697L154.947 30.75H154.827C154.367 31.33 153.887 31.82 153.387 32.22C152.907 32.6 152.347 32.87 151.707 33.03C151.087 33.21 150.327 33.3 149.427 33.3C148.467 33.3 147.597 33.12 146.817 32.76C146.057 32.4 145.457 31.85 145.017 31.11C144.577 30.35 144.357 29.4 144.357 28.26C144.357 26.58 144.967 25.32 146.187 24.48C147.427 23.62 149.297 23.15 151.797 23.07L154.617 22.98V22.17C154.617 21.13 154.367 20.39 153.867 19.95C153.367 19.51 152.667 19.29 151.767 19.29C150.947 19.29 150.157 19.41 149.397 19.65C148.637 19.89 147.897 20.17 147.177 20.49L145.977 17.85C146.777 17.43 147.687 17.09 148.707 16.83C149.747 16.57 150.827 16.44 151.947 16.44ZM152.637 25.38C150.977 25.44 149.827 25.73 149.187 26.25C148.547 26.75 148.227 27.43 148.227 28.29C148.227 29.05 148.457 29.6 148.917 29.94C149.377 30.28 149.967 30.45 150.687 30.45C151.787 30.45 152.717 30.14 153.477 29.52C154.237 28.88 154.617 27.94 154.617 26.7V25.32L152.637 25.38ZM174.174 28.29C174.174 29.37 173.914 30.29 173.394 31.05C172.874 31.79 172.104 32.35 171.084 32.73C170.084 33.11 168.854 33.3 167.394 33.3C166.254 33.3 165.274 33.22 164.454 33.06C163.634 32.9 162.854 32.65 162.114 32.31V29.1C162.914 29.48 163.804 29.8 164.784 30.06C165.764 30.32 166.674 30.45 167.514 30.45C168.554 30.45 169.304 30.29 169.764 29.97C170.224 29.65 170.454 29.22 170.454 28.68C170.454 28.36 170.364 28.07 170.184 27.81C170.004 27.55 169.654 27.28 169.134 27C168.614 26.7 167.824 26.33 166.764 25.89C165.724 25.47 164.854 25.05 164.154 24.63C163.474 24.21 162.954 23.71 162.594 23.13C162.254 22.53 162.084 21.78 162.084 20.88C162.084 19.42 162.664 18.32 163.824 17.58C164.984 16.82 166.514 16.44 168.414 16.44C169.414 16.44 170.354 16.54 171.234 16.74C172.134 16.92 173.034 17.22 173.934 17.64L172.734 20.43C172.234 20.21 171.734 20.02 171.234 19.86C170.754 19.68 170.264 19.54 169.764 19.44C169.284 19.34 168.794 19.29 168.294 19.29C167.474 19.29 166.854 19.42 166.434 19.68C166.014 19.92 165.804 20.26 165.804 20.7C165.804 21.04 165.904 21.34 166.104 21.6C166.324 21.84 166.694 22.09 167.214 22.35C167.754 22.59 168.514 22.91 169.494 23.31C170.474 23.69 171.304 24.09 171.984 24.51C172.684 24.91 173.224 25.41 173.604 26.01C173.984 26.61 174.174 27.37 174.174 28.29ZM181.591 15.63C181.591 16.27 181.561 16.9 181.501 17.52C181.461 18.12 181.421 18.57 181.381 18.87H181.621C181.961 18.31 182.381 17.86 182.881 17.52C183.381 17.16 183.931 16.89 184.531 16.71C185.151 16.53 185.791 16.44 186.451 16.44C187.671 16.44 188.721 16.65 189.601 17.07C190.481 17.49 191.151 18.14 191.611 19.02C192.091 19.88 192.331 21.01 192.331 22.41V33H188.551V23.16C188.551 21.92 188.311 21 187.831 20.4C187.351 19.8 186.591 19.5 185.551 19.5C184.551 19.5 183.761 19.72 183.181 20.16C182.601 20.58 182.191 21.21 181.951 22.05C181.711 22.87 181.591 23.88 181.591 25.08V33H177.811V10.2H181.591V15.63Z" fill="#081C3C"/>
<path d="M53.41 33H52.41V34H53.41V33ZM53.41 11.58V10.58H52.41V11.58H53.41ZM56.11 11.58H57.11V10.58H56.11V11.58ZM56.11 30.6H55.11V31.6H56.11V30.6ZM65.47 30.6H66.47V29.6H65.47V30.6ZM65.47 33V34H66.47V33H65.47ZM53.41 33H54.41V11.58H53.41H52.41V33H53.41ZM53.41 11.58V12.58H56.11V11.58V10.58H53.41V11.58ZM56.11 11.58H55.11V30.6H56.11H57.11V11.58H56.11ZM56.11 30.6V31.6H65.47V30.6V29.6H56.11V30.6ZM65.47 30.6H64.47V33H65.47H66.47V30.6H65.47ZM65.47 33V32H53.41V33V34H65.47V33ZM68.4224 16.92H69.4224V15.92H68.4224V16.92ZM68.4224 33V34H69.4224V33H68.4224ZM65.7824 33H64.7824V34H65.7824V33ZM65.7824 16.92V15.92H64.7824V16.92H65.7824ZM68.1824 11.31L67.5001 12.0411L67.5252 12.0645L67.5518 12.0861L68.1824 11.31ZM68.1824 13.83L67.5239 13.0774L67.5118 13.088L67.5001 13.0989L68.1824 13.83ZM66.0224 13.83L66.7047 13.0989H66.7047L66.0224 13.83ZM66.0224 11.31L66.6774 12.0657L66.6913 12.0536L66.7047 12.0411L66.0224 11.31ZM68.4224 16.92H67.4224V33H68.4224H69.4224V16.92H68.4224ZM68.4224 33V32H65.7824V33V34H68.4224V33ZM65.7824 33H66.7824V16.92H65.7824H64.7824V33H65.7824ZM65.7824 16.92V17.92H68.4224V16.92V15.92H65.7824V16.92ZM67.1324 10.89V11.89C67.2719 11.89 67.38 11.9289 67.5001 12.0411L68.1824 11.31L68.8647 10.5789C68.3849 10.1311 67.7929 9.89 67.1324 9.89V10.89ZM68.1824 11.31L67.5518 12.0861C67.554 12.0879 67.6624 12.1628 67.6624 12.57H68.6624H69.6624C69.6624 11.8172 69.4509 11.0521 68.813 10.5339L68.1824 11.31ZM68.6624 12.57H67.6624C67.6624 12.9386 67.5633 13.043 67.5239 13.0774L68.1824 13.83L68.8409 14.5826C69.4416 14.057 69.6624 13.3214 69.6624 12.57H68.6624ZM68.1824 13.83L67.5001 13.0989C67.38 13.2111 67.2719 13.25 67.1324 13.25V14.25V15.25C67.7929 15.25 68.3849 15.0089 68.8647 14.5611L68.1824 13.83ZM67.1324 14.25V13.25C66.9257 13.25 66.8054 13.1929 66.7047 13.0989L66.0224 13.83L65.3401 14.5611C65.8394 15.0271 66.4592 15.25 67.1324 15.25V14.25ZM66.0224 13.83L66.7047 13.0989C66.673 13.0693 66.5724 12.9575 66.5724 12.57H65.5724H64.5724C64.5724 13.3025 64.7719 14.0307 65.3401 14.5611L66.0224 13.83ZM65.5724 12.57H66.5724C66.5724 12.362 66.5998 12.2314 66.6267 12.1563C66.651 12.0881 66.6729 12.0695 66.6774 12.0657L66.0224 11.31L65.3675 10.5543C64.7628 11.0784 64.5724 11.8366 64.5724 12.57H65.5724ZM66.0224 11.31L66.7047 12.0411C66.8054 11.9471 66.9257 11.89 67.1324 11.89V10.89V9.89C66.4592 9.89 65.8394 10.1129 65.3401 10.5789L66.0224 11.31ZM82.6068 18.03L81.9145 18.7517L81.9224 18.7591L82.6068 18.03ZM84.0768 33V34H85.0768V33H84.0768ZM81.4668 33H80.4668V34H81.4668V33ZM80.5968 19.8L81.3378 19.1285V19.1285L80.5968 19.8ZM74.1768 20.34L75.0037 20.9023V20.9023L74.1768 20.34ZM73.1568 33V34H74.1568V33H73.1568ZM70.5168 33H69.5168V34H70.5168V33ZM70.5168 16.92V15.92H69.5168V16.92H70.5168ZM72.6468 16.92L73.6313 16.7447L73.4844 15.92H72.6468V16.92ZM73.0368 19.11L72.0523 19.2853L72.1991 20.11H73.0368V19.11ZM73.1868 19.11V20.11H73.7327L74.028 19.6508L73.1868 19.11ZM74.5068 17.73L75.076 18.5522L75.0823 18.5478L74.5068 17.73ZM76.2768 16.89L76.0061 15.9273L76.2768 16.89ZM78.2568 16.62V17.62C80.0261 17.62 81.186 18.0528 81.9146 18.7517L82.6068 18.03L83.299 17.3083C82.0676 16.1272 80.3275 15.62 78.2568 15.62V16.62ZM82.6068 18.03L81.9224 18.7591C82.6134 19.4078 83.0768 20.5772 83.0768 22.53H84.0768H85.0768C85.0768 20.3228 84.5602 18.4922 83.2912 17.3009L82.6068 18.03ZM84.0768 22.53H83.0768V33H84.0768H85.0768V22.53H84.0768ZM84.0768 33V32H81.4668V33V34H84.0768V33ZM81.4668 33H82.4668V22.71H81.4668H80.4668V33H81.4668ZM81.4668 22.71H82.4668C82.4668 21.2837 82.1514 20.0263 81.3378 19.1285L80.5968 19.8L79.8558 20.4715C80.2022 20.8537 80.4668 21.5363 80.4668 22.71H81.4668ZM80.5968 19.8L81.3378 19.1285C80.4977 18.2015 79.2635 17.84 77.8668 17.84V18.84V19.84C78.9501 19.84 79.5359 20.1185 79.8558 20.4715L80.5968 19.8ZM77.8668 18.84V17.84C75.9218 17.84 74.2932 18.3904 73.3499 19.7777L74.1768 20.34L75.0037 20.9023C75.4204 20.2896 76.2518 19.84 77.8668 19.84V18.84ZM74.1768 20.34L73.3499 19.7777C72.5105 21.0121 72.1568 22.6825 72.1568 24.66H73.1568H74.1568C74.1568 22.8775 74.4831 21.6679 75.0037 20.9023L74.1768 20.34ZM73.1568 24.66H72.1568V33H73.1568H74.1568V24.66H73.1568ZM73.1568 33V32H70.5168V33V34H73.1568V33ZM70.5168 33H71.5168V16.92H70.5168H69.5168V33H70.5168ZM70.5168 16.92V17.92H72.6468V16.92V15.92H70.5168V16.92ZM72.6468 16.92L71.6623 17.0953L72.0523 19.2853L73.0368 19.11L74.0213 18.9347L73.6313 16.7447L72.6468 16.92ZM73.0368 19.11V20.11H73.1868V19.11V18.11H73.0368V19.11ZM73.1868 19.11L74.028 19.6508C74.3205 19.1956 74.67 18.8333 75.076 18.5522L74.5068 17.73L73.9376 16.9078C73.3036 17.3467 72.773 17.9044 72.3456 18.5692L73.1868 19.11ZM74.5068 17.73L75.0823 18.5478C75.529 18.2335 76.0158 18.0022 76.5475 17.8526L76.2768 16.89L76.0061 15.9273C75.2578 16.1378 74.5646 16.4665 73.9313 16.9122L74.5068 17.73ZM76.2768 16.89L76.5475 17.8526C77.0974 17.698 77.6662 17.62 78.2568 17.62V16.62V15.62C77.4874 15.62 76.7362 15.722 76.0061 15.9273L76.2768 16.89ZM94.6117 17.22L94.1818 18.1229L94.19 18.1267L94.6117 17.22ZM96.8017 19.05L95.9947 19.6405L96.2943 20.05H96.8017V19.05ZM96.9517 19.05V20.05H97.7969L97.9377 19.2167L96.9517 19.05ZM97.3117 16.92V15.92H96.4666L96.3257 16.7533L97.3117 16.92ZM99.4117 16.92H100.412V15.92H99.4117V16.92ZM98.6317 37.08L97.7408 36.6258L97.7373 36.6328L98.6317 37.08ZM96.2617 39.42L96.7021 40.3178V40.3178L96.2617 39.42ZM89.0017 39.93L89.1824 38.9465L89.1743 38.945L89.1661 38.9436L89.0017 39.93ZM86.4217 39.18H85.4217V39.8281L86.0134 40.0928L86.4217 39.18ZM86.4217 36.75L86.8689 35.8556L85.4217 35.132V36.75H86.4217ZM88.1317 37.41L88.4387 36.4583L88.4247 36.4538L88.4105 36.4497L88.1317 37.41ZM90.1417 37.86L90.2793 36.8695V36.8695L90.1417 37.86ZM95.6017 36.78L94.8946 36.0729L94.8858 36.0817L94.8772 36.0908L95.6017 36.78ZM96.8317 31.83L97.8307 31.8754L97.8308 31.8734L96.8317 31.83ZM96.8917 30.87L97.8856 30.9804L98.009 29.87H96.8917V30.87ZM96.7717 30.87V29.87H96.2437L95.9459 30.306L96.7717 30.87ZM94.6717 32.7L94.2418 31.7971L94.2333 31.8012L94.6717 32.7ZM86.9017 31.11L86.1187 31.7321L86.124 31.7386L86.9017 31.11ZM85.9417 20.55L85.0225 20.1561L85.0195 20.1633L85.9417 20.55ZM88.2217 17.64L87.6516 16.8184V16.8184L88.2217 17.64ZM89.8117 19.56L89.2117 18.76L89.2056 18.7646L89.1995 18.7693L89.8117 19.56ZM88.3717 21.66L87.4337 21.3133L87.4304 21.3224L87.4272 21.3315L88.3717 21.66ZM88.9717 29.58L88.1445 30.1419L88.1506 30.1509L88.1569 30.1598L88.9717 29.58ZM94.2817 30.84L94.6077 31.7854L94.6221 31.7804L94.6364 31.775L94.2817 30.84ZM95.7217 29.85L96.4785 30.5036L96.4857 30.4953L96.4927 30.4869L95.7217 29.85ZM96.5617 28.11L97.5302 28.359V28.359L96.5617 28.11ZM96.3217 21.45L95.3795 21.785L95.3828 21.7942L95.3862 21.8034L96.3217 21.45ZM94.7917 19.47L95.3062 18.6125V18.6125L94.7917 19.47ZM91.7617 16.62V17.62C92.6937 17.62 93.4937 17.7952 94.1818 18.1229L94.6117 17.22L95.0417 16.3171C94.0498 15.8448 92.9497 15.62 91.7617 15.62V16.62ZM94.6117 17.22L94.19 18.1267C94.8861 18.4505 95.4871 18.9467 95.9947 19.6405L96.8017 19.05L97.6087 18.4595C96.9164 17.5133 96.0574 16.7895 95.0334 16.3133L94.6117 17.22ZM96.8017 19.05V20.05H96.9517V19.05V18.05H96.8017V19.05ZM96.9517 19.05L97.9377 19.2167L98.2977 17.0867L97.3117 16.92L96.3257 16.7533L95.9657 18.8833L96.9517 19.05ZM97.3117 16.92V17.92H99.4117V16.92V15.92H97.3117V16.92ZM99.4117 16.92H98.4117V33.27H99.4117H100.412V16.92H99.4117ZM99.4117 33.27H98.4117C98.4117 34.6817 98.1695 35.7848 97.7408 36.6258L98.6317 37.08L99.5226 37.5342C100.134 36.3352 100.412 34.8983 100.412 33.27H99.4117ZM98.6317 37.08L97.7373 36.6328C97.3168 37.4737 96.688 38.097 95.8213 38.5222L96.2617 39.42L96.7021 40.3178C97.9555 39.703 98.9066 38.7663 99.5261 37.5272L98.6317 37.08ZM96.2617 39.42L95.8213 38.5222C94.941 38.9541 93.7549 39.2 92.2117 39.2V40.2V41.2C93.9485 41.2 95.4624 40.9259 96.7021 40.3178L96.2617 39.42ZM92.2117 40.2V39.2C91.1027 39.2 90.094 39.1139 89.1824 38.9465L89.0017 39.93L88.8211 40.9135C89.8694 41.1061 91.0007 41.2 92.2117 41.2V40.2ZM89.0017 39.93L89.1661 38.9436C88.2765 38.7953 87.5004 38.5671 86.8301 38.2672L86.4217 39.18L86.0134 40.0928C86.863 40.4729 87.807 40.7447 88.8373 40.9164L89.0017 39.93ZM86.4217 39.18H87.4217V36.75H86.4217H85.4217V39.18H86.4217ZM86.4217 36.75L85.9745 37.6444C86.5541 37.9342 87.1812 38.1753 87.8529 38.3703L88.1317 37.41L88.4105 36.4497C87.8423 36.2847 87.3294 36.0858 86.8689 35.8556L86.4217 36.75ZM88.1317 37.41L87.8247 38.3617C88.5059 38.5814 89.2332 38.7434 90.0042 38.8505L90.1417 37.86L90.2793 36.8695C89.6103 36.7766 88.9976 36.6386 88.4387 36.4583L88.1317 37.41ZM90.1417 37.86L90.0042 38.8505C90.7717 38.9571 91.5578 39.01 92.3617 39.01V38.01V37.01C91.6457 37.01 90.9517 36.9629 90.2793 36.8695L90.1417 37.86ZM92.3617 38.01V39.01C93.9511 39.01 95.3172 38.53 96.3263 37.4692L95.6017 36.78L94.8772 36.0908C94.3262 36.67 93.5323 37.01 92.3617 37.01V38.01ZM95.6017 36.78L96.3088 37.4871C97.3388 36.4571 97.8017 35.0785 97.8017 33.48H96.8017H95.8017C95.8017 34.6815 95.4646 35.5029 94.8946 36.0729L95.6017 36.78ZM96.8017 33.48H97.8017V32.85H96.8017H95.8017V33.48H96.8017ZM96.8017 32.85H97.8017C97.8017 32.6328 97.8109 32.3105 97.8307 31.8754L96.8317 31.83L95.8328 31.7846C95.8125 32.2295 95.8017 32.5872 95.8017 32.85H96.8017ZM96.8317 31.83L97.8308 31.8734C97.8508 31.4121 97.8698 31.123 97.8856 30.9804L96.8917 30.87L95.8978 30.7596C95.8737 30.977 95.8526 31.3279 95.8327 31.7866L96.8317 31.83ZM96.8917 30.87V29.87H96.7717V30.87V31.87H96.8917V30.87ZM96.7717 30.87L95.9459 30.306C95.4787 30.9903 94.9114 31.4783 94.2418 31.7971L94.6717 32.7L95.1017 33.6029C96.112 33.1217 96.9448 32.3897 97.5975 31.434L96.7717 30.87ZM94.6717 32.7L94.2333 31.8012C93.5751 32.1223 92.7706 32.3 91.7917 32.3V33.3V34.3C93.0128 34.3 94.1283 34.0777 95.1101 33.5988L94.6717 32.7ZM91.7917 33.3V32.3C89.9767 32.3 88.6475 31.6791 87.6795 30.4814L86.9017 31.11L86.124 31.7386C87.516 33.4609 89.4468 34.3 91.7917 34.3V33.3ZM86.9017 31.11L87.6847 30.4879C86.7124 29.2642 86.1617 27.4739 86.1617 24.99H85.1617H84.1617C84.1617 27.7461 84.771 30.0358 86.1188 31.7321L86.9017 31.11ZM85.1617 24.99H86.1617C86.1617 23.3672 86.4074 22.0253 86.8639 20.9367L85.9417 20.55L85.0195 20.1633C84.436 21.5547 84.1617 23.1728 84.1617 24.99H85.1617ZM85.9417 20.55L86.8609 20.9439C87.3382 19.8301 87.9879 19.0194 88.7918 18.4616L88.2217 17.64L87.6516 16.8184C86.4955 17.6206 85.6252 18.7499 85.0226 20.1561L85.9417 20.55ZM88.2217 17.64L88.7918 18.4616C89.5792 17.9152 90.5525 17.62 91.7617 17.62V16.62V15.62C90.2109 15.62 88.8242 16.0048 87.6516 16.8184L88.2217 17.64ZM92.1217 18.84V17.84C91.0337 17.84 90.0462 18.1341 89.2117 18.76L89.8117 19.56L90.4117 20.36C90.8572 20.0259 91.4097 19.84 92.1217 19.84V18.84ZM89.8117 19.56L89.1995 18.7693C88.3985 19.3895 87.8224 20.2616 87.4337 21.3133L88.3717 21.66L89.3097 22.0066C89.601 21.2184 89.985 20.6905 90.4239 20.3507L89.8117 19.56ZM88.3717 21.66L87.4272 21.3315C87.06 22.3872 86.8917 23.6252 86.8917 25.02H87.8917H88.8917C88.8917 23.7748 89.0434 22.7728 89.3162 21.9885L88.3717 21.66ZM87.8917 25.02H86.8917C86.8917 27.0989 87.2659 28.8484 88.1445 30.1419L88.9717 29.58L89.7989 29.0181C89.2375 28.1916 88.8917 26.9011 88.8917 25.02H87.8917ZM88.9717 29.58L88.1569 30.1598C89.1048 31.4919 90.4947 32.14 92.1817 32.14V31.14V30.14C91.0688 30.14 90.3187 29.7481 89.7865 29.0002L88.9717 29.58ZM92.1817 31.14V32.14C93.0777 32.14 93.8942 32.0314 94.6077 31.7854L94.2817 30.84L93.9557 29.8946C93.5092 30.0486 92.9258 30.14 92.1817 30.14V31.14ZM94.2817 30.84L94.6364 31.775C95.361 31.5001 95.9827 31.0778 96.4785 30.5036L95.7217 29.85L94.9649 29.1964C94.7008 29.5022 94.3624 29.7399 93.9271 29.905L94.2817 30.84ZM95.7217 29.85L96.4927 30.4869C96.9839 29.8923 97.3212 29.1717 97.5302 28.359L96.5617 28.11L95.5932 27.861C95.4422 28.4483 95.2196 28.8877 94.9508 29.2131L95.7217 29.85ZM96.5617 28.11L97.5302 28.359C97.7367 27.5561 97.8317 26.6384 97.8317 25.62H96.8317H95.8317C95.8317 26.5216 95.7468 27.2639 95.5932 27.861L96.5617 28.11ZM96.8317 25.62H97.8317V24.99H96.8317H95.8317V25.62H96.8317ZM96.8317 24.99H97.8317C97.8317 23.4653 97.656 22.1522 97.2572 21.0966L96.3217 21.45L95.3862 21.8034C95.6675 22.5478 95.8317 23.5947 95.8317 24.99H96.8317ZM96.3217 21.45L97.2639 21.115C96.8801 20.0355 96.2379 19.1715 95.3062 18.6125L94.7917 19.47L94.2772 20.3275C94.7456 20.6085 95.1233 21.0645 95.3795 21.785L96.3217 21.45ZM94.7917 19.47L95.3062 18.6125C94.4083 18.0738 93.326 17.84 92.1217 17.84V18.84V19.84C93.0774 19.84 93.7751 20.0262 94.2772 20.3275L94.7917 19.47ZM114.959 16.92H115.959V15.92H114.959V16.92ZM114.959 33V34H115.959V33H114.959ZM112.799 33L111.815 33.1801L111.965 34H112.799V33ZM112.409 30.87L113.392 30.6899L113.242 29.87H112.409V30.87ZM112.289 30.87V29.87H111.726L111.434 30.351L112.289 30.87ZM110.969 32.25L110.414 31.4179V31.4179L110.969 32.25ZM109.199 33.03L108.956 32.0599L108.942 32.0634L108.928 32.0673L109.199 33.03ZM103.949 32.7L103.51 33.5986L103.522 33.6046L103.535 33.6104L103.949 32.7ZM101.999 30.78L101.109 31.2355V31.2355L101.999 30.78ZM101.339 16.92V15.92H100.339V16.92H101.339ZM104.009 16.92H105.009V15.92H104.009V16.92ZM104.879 30.15L105.62 29.4785V29.4785L104.879 30.15ZM110.399 30.45L110.942 31.2896L110.948 31.2857L110.399 30.45ZM111.869 28.47L110.922 28.1473L110.918 28.1604L111.869 28.47ZM112.319 16.92V15.92H111.319V16.92H112.319ZM114.959 16.92H113.959V33H114.959H115.959V16.92H114.959ZM114.959 33V32H112.799V33V34H114.959V33ZM112.799 33L113.782 32.8199L113.392 30.6899L112.409 30.87L111.425 31.0501L111.815 33.1801L112.799 33ZM112.409 30.87V29.87H112.289V30.87V31.87H112.409V30.87ZM112.289 30.87L111.434 30.351C111.169 30.7872 110.831 31.1399 110.414 31.4179L110.969 32.25L111.523 33.0821C112.186 32.6401 112.728 32.0728 113.144 31.389L112.289 30.87ZM110.969 32.25L110.414 31.4179C109.971 31.7133 109.487 31.9272 108.956 32.0599L109.199 33.03L109.441 34.0001C110.191 33.8128 110.886 33.5067 111.523 33.0821L110.969 32.25ZM109.199 33.03L108.928 32.0673C108.381 32.2213 107.802 32.3 107.189 32.3V33.3V34.3C107.975 34.3 108.737 34.1987 109.469 33.9926L109.199 33.03ZM107.189 33.3V32.3C106.007 32.3 105.078 32.1147 104.363 31.7896L103.949 32.7L103.535 33.6104C104.58 34.0853 105.81 34.3 107.189 34.3V33.3ZM103.949 32.7L104.388 31.8014C103.724 31.4774 103.231 30.9938 102.889 30.3245L101.999 30.78L101.109 31.2355C101.646 32.2862 102.454 33.0826 103.51 33.5986L103.949 32.7ZM101.999 30.78L102.889 30.3245C102.544 29.6511 102.339 28.7123 102.339 27.45H101.339H100.339C100.339 28.9077 100.573 30.1889 101.109 31.2355L101.999 30.78ZM101.339 27.45H102.339V16.92H101.339H100.339V27.45H101.339ZM101.339 16.92V17.92H104.009V16.92V15.92H101.339V16.92ZM104.009 16.92H103.009V27.27H104.009H105.009V16.92H104.009ZM104.009 27.27H103.009C103.009 28.6811 103.326 29.9262 104.138 30.8215L104.879 30.15L105.62 29.4785C105.271 29.0938 105.009 28.4189 105.009 27.27H104.009ZM104.879 30.15L104.138 30.8215C104.975 31.7454 106.196 32.11 107.579 32.11V31.11V30.11C106.521 30.11 105.942 29.8346 105.62 29.4785L104.879 30.15ZM107.579 31.11V32.11C108.884 32.11 110.04 31.8733 110.942 31.2896L110.399 30.45L109.855 29.6104C109.398 29.9067 108.673 30.11 107.579 30.11V31.11ZM110.399 30.45L110.948 31.2857C111.853 30.6908 112.475 29.8371 112.82 28.7796L111.869 28.47L110.918 28.1604C110.702 28.8229 110.344 29.2892 109.85 29.6143L110.399 30.45ZM111.869 28.47L112.815 28.7927C113.16 27.7806 113.319 26.6054 113.319 25.29H112.319H111.319C111.319 26.4546 111.177 27.3994 110.922 28.1473L111.869 28.47ZM112.319 25.29H113.319V16.92H112.319H111.319V25.29H112.319ZM112.319 16.92V17.92H114.959V16.92V15.92H112.319V16.92ZM127.504 17.94L128.179 17.2022V17.2022L127.504 17.94ZM128.914 33V34H129.914V33H128.914ZM126.994 33L126.018 33.2183L126.193 34H126.994V33ZM126.484 30.72L127.46 30.5017L127.285 29.72H126.484V30.72ZM126.364 30.72V29.72H125.88L125.58 30.0986L126.364 30.72ZM124.924 32.19L125.544 32.9741L125.548 32.9709L124.924 32.19ZM123.244 33.03L122.973 32.0673L122.965 32.0697L123.244 33.03ZM118.354 32.79L117.945 33.7029L117.954 33.7067L118.354 32.79ZM116.554 31.23L115.7 31.7515L115.707 31.7622L116.554 31.23ZM117.784 24.84L118.347 25.666L118.356 25.6598L117.784 24.84ZM123.604 23.4L123.634 24.3995L123.637 24.3995L123.604 23.4ZM126.334 23.31L126.367 24.3095L127.334 24.2776V23.31H126.334ZM125.464 19.56L124.796 20.3046V20.3046L125.464 19.56ZM120.604 19.17L120.905 20.1236L120.916 20.12L120.927 20.1162L120.604 19.17ZM118.474 20.01L117.548 20.3886L117.951 21.3745L118.91 20.9098L118.474 20.01ZM117.664 18.03L117.187 17.1511L116.399 17.5789L116.738 18.4086L117.664 18.03ZM120.154 17.07L120.415 18.0352L120.424 18.0327L120.434 18.03L120.154 17.07ZM123.934 25.23L123.896 24.2307L123.894 24.2308L123.934 25.23ZM119.764 26.19L119.18 25.3776L119.17 25.3849L119.764 26.19ZM119.434 30.54L118.82 31.3294L118.827 31.3347L118.834 31.34L119.434 30.54ZM124.954 30.06L125.589 30.8325L125.599 30.824L124.954 30.06ZM126.304 25.14H127.304V24.1013L126.266 24.1407L126.304 25.14ZM123.154 16.65V17.65C124.994 17.65 126.15 18.0573 126.829 18.6778L127.504 17.94L128.179 17.2022C126.977 16.1027 125.234 15.65 123.154 15.65V16.65ZM127.504 17.94L126.829 18.6778C127.48 19.2734 127.914 20.316 127.914 22.05H128.914H129.914C129.914 20.024 129.408 18.3266 128.179 17.2022L127.504 17.94ZM128.914 22.05H127.914V33H128.914H129.914V22.05H128.914ZM128.914 33V32H126.994V33V34H128.914V33ZM126.994 33L127.97 32.7817L127.46 30.5017L126.484 30.72L125.508 30.9383L126.018 33.2183L126.994 33ZM126.484 30.72V29.72H126.364V30.72V31.72H126.484V30.72ZM126.364 30.72L125.58 30.0986C125.16 30.6286 124.732 31.0628 124.299 31.4091L124.924 32.19L125.548 32.9709C126.115 32.5172 126.647 31.9714 127.147 31.3414L126.364 30.72ZM124.924 32.19L124.303 31.406C123.935 31.697 123.497 31.9201 122.973 32.0673L123.244 33.03L123.514 33.9926C124.271 33.7799 124.952 33.443 125.544 32.974L124.924 32.19ZM123.244 33.03L122.965 32.0697C122.463 32.2153 121.803 32.3 120.964 32.3V33.3V34.3C121.924 34.3 122.784 34.2047 123.522 33.9903L123.244 33.03ZM120.964 33.3V32.3C120.124 32.3 119.392 32.1517 118.753 31.8733L118.354 32.79L117.954 33.7067C118.875 34.1083 119.884 34.3 120.964 34.3V33.3ZM118.354 32.79L118.762 31.8772C118.181 31.6173 117.734 31.2292 117.4 30.6978L116.554 31.23L115.707 31.7622C116.253 32.6308 117.006 33.2827 117.945 33.7028L118.354 32.79ZM116.554 31.23L117.407 30.7085C117.086 30.1839 116.894 29.4767 116.894 28.53H115.894H114.894C114.894 29.7432 115.141 30.8361 115.7 31.7514L116.554 31.23ZM115.894 28.53H116.894C116.894 27.2413 117.376 26.3291 118.347 25.6659L117.784 24.84L117.22 24.014C115.671 25.0709 114.894 26.6187 114.894 28.53H115.894ZM117.784 24.84L118.356 25.6598C119.38 24.9448 121.087 24.4773 123.634 24.3995L123.604 23.4L123.573 22.4005C120.881 22.4827 118.707 22.9752 117.211 24.0202L117.784 24.84ZM123.604 23.4L123.637 24.3995L126.367 24.3095L126.334 23.31L126.301 22.3105L123.571 22.4005L123.604 23.4ZM126.334 23.31H127.334V22.35H126.334H125.334V23.31H126.334ZM126.334 22.35H127.334C127.334 20.9199 127.034 19.6245 126.131 18.8154L125.464 19.56L124.796 20.3046C125.054 20.5355 125.334 21.1001 125.334 22.35H126.334ZM125.464 19.56L126.131 18.8154C125.31 18.0796 124.22 17.78 123.004 17.78V18.78V19.78C123.907 19.78 124.457 20.0004 124.796 20.3046L125.464 19.56ZM123.004 18.78V17.78C122.059 17.78 121.149 17.9266 120.28 18.2238L120.604 19.17L120.927 20.1162C121.578 19.8934 122.269 19.78 123.004 19.78V18.78ZM120.604 19.17L120.303 18.2164C119.5 18.4698 118.745 18.7673 118.037 19.1102L118.474 20.01L118.91 20.9098C119.523 20.6127 120.187 20.3502 120.905 20.1236L120.604 19.17ZM118.474 20.01L119.399 19.6314L118.589 17.6514L117.664 18.03L116.738 18.4086L117.548 20.3886L118.474 20.01ZM117.664 18.03L118.141 18.9089C118.758 18.5738 119.512 18.2797 120.415 18.0352L120.154 17.07L119.892 16.1048C118.875 16.3803 117.969 16.7262 117.187 17.1511L117.664 18.03ZM120.154 17.07L120.434 18.03C121.299 17.7776 122.205 17.65 123.154 17.65V16.65V15.65C122.023 15.65 120.928 15.8024 119.874 16.11L120.154 17.07ZM123.934 25.23L123.894 24.2308C121.87 24.3118 120.217 24.6334 119.18 25.3777L119.764 26.19L120.347 27.0023C120.87 26.6266 121.998 26.3082 123.974 26.2292L123.934 25.23ZM119.764 26.19L119.17 25.3849C118.132 26.1504 117.624 27.252 117.624 28.56H118.624H119.624C119.624 27.828 119.876 27.3496 120.357 26.9951L119.764 26.19ZM118.624 28.56H117.624C117.624 29.6632 117.964 30.6634 118.82 31.3294L119.434 30.54L120.048 29.7506C119.824 29.5766 119.624 29.2568 119.624 28.56H118.624ZM119.434 30.54L118.834 31.34C119.603 31.9172 120.538 32.17 121.564 32.17V31.17V30.17C120.87 30.17 120.384 30.0028 120.034 29.74L119.434 30.54ZM121.564 31.17V32.17C123.115 32.17 124.481 31.7435 125.589 30.8324L124.954 30.06L124.319 29.2876C123.627 29.8565 122.733 30.17 121.564 30.17V31.17ZM124.954 30.06L125.599 30.824C126.791 29.817 127.304 28.3328 127.304 26.58H126.304H125.304C125.304 27.9472 124.916 28.783 124.308 29.296L124.954 30.06ZM126.304 26.58H127.304V25.14H126.304H125.304V26.58H126.304ZM126.304 25.14L126.266 24.1407L123.896 24.2307L123.934 25.23L123.972 26.2293L126.342 26.1393L126.304 25.14ZM138.8 33V34H139.8V33H138.8ZM134.96 33H133.96V34H134.96V33ZM134.96 14.82H135.96V13.82H134.96V14.82ZM128.81 14.82H127.81V15.82H128.81V14.82ZM128.81 11.58V10.58H127.81V11.58H128.81ZM144.95 11.58H145.95V10.58H144.95V11.58ZM144.95 14.82V15.82H145.95V14.82H144.95ZM138.8 14.82V13.82H137.8V14.82H138.8ZM138.8 33V32H134.96V33V34H138.8V33ZM134.96 33H135.96V14.82H134.96H133.96V33H134.96ZM134.96 14.82V13.82H128.81V14.82V15.82H134.96V14.82ZM128.81 14.82H129.81V11.58H128.81H127.81V14.82H128.81ZM128.81 11.58V12.58H144.95V11.58V10.58H128.81V11.58ZM144.95 11.58H143.95V14.82H144.95H145.95V11.58H144.95ZM144.95 14.82V13.82H138.8V14.82V15.82H144.95V14.82ZM138.8 14.82H137.8V33H138.8H139.8V14.82H138.8ZM156.717 17.82L156.069 18.5812L156.076 18.5877L156.084 18.594L156.717 17.82ZM158.367 33V34H159.367V33H158.367ZM155.697 33L154.748 33.3162L154.976 34H155.697V33ZM154.947 30.75L155.896 30.4338L155.668 29.75H154.947V30.75ZM154.827 30.75V29.75H154.344L154.044 30.1286L154.827 30.75ZM153.387 32.22L154.008 33.0041L154.012 33.0009L153.387 32.22ZM151.707 33.03L151.465 32.0599L151.446 32.0644L151.428 32.0697L151.707 33.03ZM146.817 32.76L146.389 33.6638L146.398 33.668L146.817 32.76ZM145.017 31.11L144.152 31.6111L144.158 31.6211L145.017 31.11ZM146.187 24.48L146.754 25.3037L146.757 25.3017L146.187 24.48ZM151.797 23.07L151.765 22.0705L151.765 22.0705L151.797 23.07ZM154.617 22.98L154.649 23.9795L155.617 23.9486V22.98H154.617ZM153.867 19.95L154.528 19.1993V19.1993L153.867 19.95ZM149.397 19.65L149.698 20.6036V20.6036L149.397 19.65ZM147.177 20.49L146.267 20.9038L146.677 21.8066L147.583 21.4038L147.177 20.49ZM145.977 17.85L145.512 16.9646L144.676 17.4037L145.067 18.2638L145.977 17.85ZM148.707 16.83L148.465 15.8598L148.46 15.861L148.707 16.83ZM152.637 25.38L152.607 24.3804L152.601 24.3807L152.637 25.38ZM149.187 26.25L149.803 27.038L149.81 27.0321L149.818 27.0261L149.187 26.25ZM148.917 29.94L149.511 29.1358V29.1358L148.917 29.94ZM153.477 29.52L154.109 30.2949L154.115 30.2899L154.121 30.2849L153.477 29.52ZM154.617 25.32H155.617V24.2892L154.587 24.3205L154.617 25.32ZM151.947 16.44V17.44C153.92 17.44 155.239 17.8745 156.069 18.5812L156.717 17.82L157.366 17.0588C156.035 15.9255 154.174 15.44 151.947 15.44V16.44ZM156.717 17.82L156.084 18.594C156.875 19.2411 157.367 20.324 157.367 22.08H158.367H159.367C159.367 19.956 158.759 18.1989 157.35 17.046L156.717 17.82ZM158.367 22.08H157.367V33H158.367H159.367V22.08H158.367ZM158.367 33V32H155.697V33V34H158.367V33ZM155.697 33L156.646 32.6838L155.896 30.4338L154.947 30.75L153.998 31.0662L154.748 33.3162L155.697 33ZM154.947 30.75V29.75H154.827V30.75V31.75H154.947V30.75ZM154.827 30.75L154.044 30.1286C153.623 30.6586 153.195 31.0928 152.762 31.4391L153.387 32.22L154.012 33.0009C154.579 32.5472 155.111 32.0014 155.611 31.3714L154.827 30.75ZM153.387 32.22L152.766 31.436C152.406 31.7211 151.978 31.9316 151.465 32.0599L151.707 33.03L151.95 34.0001C152.717 33.8084 153.408 33.4789 154.008 33.004L153.387 32.22ZM151.707 33.03L151.428 32.0697C150.927 32.2153 150.267 32.3 149.427 32.3V33.3V34.3C150.387 34.3 151.248 34.2047 151.986 33.9903L151.707 33.03ZM149.427 33.3V32.3C148.595 32.3 147.87 32.1446 147.236 31.852L146.817 32.76L146.398 33.668C147.324 34.0954 148.34 34.3 149.427 34.3V33.3ZM146.817 32.76L147.245 31.8563C146.669 31.5835 146.218 31.1724 145.877 30.5989L145.017 31.11L144.158 31.6211C144.697 32.5276 145.445 33.2165 146.389 33.6637L146.817 32.76ZM145.017 31.11L145.883 30.609C145.553 30.0401 145.357 29.2753 145.357 28.26H144.357H143.357C143.357 29.5247 143.601 30.6599 144.152 31.611L145.017 31.11ZM144.357 28.26H145.357C145.357 26.8577 145.845 25.9297 146.754 25.3036L146.187 24.48L145.62 23.6564C144.089 24.7103 143.357 26.3023 143.357 28.26H144.357ZM146.187 24.48L146.757 25.3017C147.766 24.6022 149.408 24.147 151.829 24.0695L151.797 23.07L151.765 22.0705C149.186 22.153 147.089 22.6378 145.617 23.6583L146.187 24.48ZM151.797 23.07L151.829 24.0695L154.649 23.9795L154.617 22.98L154.585 21.9805L151.765 22.0705L151.797 23.07ZM154.617 22.98H155.617V22.17H154.617H153.617V22.98H154.617ZM154.617 22.17H155.617C155.617 21.0027 155.34 19.914 154.528 19.1993L153.867 19.95L153.206 20.7007C153.394 20.866 153.617 21.2573 153.617 22.17H154.617ZM153.867 19.95L154.528 19.1993C153.789 18.5496 152.824 18.29 151.767 18.29V19.29V20.29C152.51 20.29 152.945 20.4704 153.206 20.7007L153.867 19.95ZM151.767 19.29V18.29C150.848 18.29 149.956 18.4248 149.096 18.6964L149.397 19.65L149.698 20.6036C150.358 20.3952 151.046 20.29 151.767 20.29V19.29ZM149.397 19.65L149.096 18.6964C148.301 18.9476 147.526 19.2408 146.771 19.5762L147.177 20.49L147.583 21.4038C148.269 21.0992 148.974 20.8324 149.698 20.6036L149.397 19.65ZM147.177 20.49L148.087 20.0762L146.887 17.4362L145.977 17.85L145.067 18.2638L146.267 20.9038L147.177 20.49ZM145.977 17.85L146.442 18.7354C147.163 18.357 147.998 18.0428 148.954 17.799L148.707 16.83L148.46 15.861C147.377 16.1372 146.392 16.503 145.512 16.9646L145.977 17.85ZM148.707 16.83L148.95 17.8001C149.907 17.5608 150.905 17.44 151.947 17.44V16.44V15.44C150.749 15.44 149.587 15.5792 148.465 15.8599L148.707 16.83ZM152.637 25.38L152.601 24.3807C150.908 24.4419 149.467 24.7342 148.557 25.4739L149.187 26.25L149.818 27.0261C150.187 26.7258 151.047 26.4381 152.673 26.3793L152.637 25.38ZM149.187 26.25L148.571 25.462C147.673 26.1641 147.227 27.1432 147.227 28.29H148.227H149.227C149.227 27.7168 149.421 27.3359 149.803 27.038L149.187 26.25ZM148.227 28.29H147.227C147.227 29.2537 147.528 30.157 148.323 30.7442L148.917 29.94L149.511 29.1358C149.386 29.043 149.227 28.8463 149.227 28.29H148.227ZM148.917 29.94L148.323 30.7442C148.995 31.241 149.809 31.45 150.687 31.45V30.45V29.45C150.125 29.45 149.759 29.319 149.511 29.1358L148.917 29.94ZM150.687 30.45V31.45C151.988 31.45 153.149 31.0782 154.109 30.2949L153.477 29.52L152.845 28.7451C152.285 29.2018 151.586 29.45 150.687 29.45V30.45ZM153.477 29.52L154.121 30.2849C155.161 29.409 155.617 28.1554 155.617 26.7H154.617H153.617C153.617 27.7246 153.313 28.351 152.833 28.7551L153.477 29.52ZM154.617 26.7H155.617V25.32H154.617H153.617V26.7H154.617ZM154.617 25.32L154.587 24.3205L152.607 24.3805L152.637 25.38L152.667 26.3795L154.647 26.3195L154.617 25.32ZM173.394 31.05L174.212 31.625L174.219 31.6147L173.394 31.05ZM171.084 32.73L170.735 31.7929L170.729 31.7952L171.084 32.73ZM164.454 33.06L164.262 34.0415V34.0415L164.454 33.06ZM162.114 32.31H161.114V32.951L161.696 33.2187L162.114 32.31ZM162.114 29.1L162.543 28.1967L161.114 27.5179V29.1H162.114ZM164.784 30.06L165.04 29.0934V29.0934L164.784 30.06ZM170.184 27.81L169.362 28.3792V28.3792L170.184 27.81ZM169.134 27L168.634 27.8662L168.647 27.8735L168.66 27.8805L169.134 27ZM166.764 25.89L167.147 24.9664L167.138 24.9628L166.764 25.89ZM164.154 24.63L163.628 25.4809L163.639 25.4875L164.154 24.63ZM162.594 23.13L161.724 23.623L161.734 23.6404L161.744 23.6574L162.594 23.13ZM163.824 17.58L164.362 18.4231L164.372 18.4165L163.824 17.58ZM171.234 16.74L171.012 17.7151L171.025 17.718L171.038 17.7206L171.234 16.74ZM173.934 17.64L174.852 18.0351L175.236 17.144L174.357 16.7338L173.934 17.64ZM172.734 20.43L172.331 21.3453L173.254 21.7514L173.652 20.8251L172.734 20.43ZM171.234 19.86L170.883 20.7963L170.906 20.8049L170.929 20.8124L171.234 19.86ZM169.764 19.44L169.56 20.419L169.568 20.4206L169.764 19.44ZM166.434 19.68L166.93 20.5482L166.945 20.5395L166.96 20.5303L166.434 19.68ZM166.104 21.6L165.311 22.2097L165.338 22.2439L165.367 22.2757L166.104 21.6ZM167.214 22.35L166.767 23.2444L166.787 23.2546L166.808 23.2638L167.214 22.35ZM169.494 23.31L169.116 24.2358L169.124 24.2392L169.132 24.2424L169.494 23.31ZM171.984 24.51L171.458 25.3608L171.473 25.3698L171.488 25.3782L171.984 24.51ZM173.604 26.01L174.449 25.4749L173.604 26.01ZM174.174 28.29H173.174C173.174 29.2042 172.956 29.9188 172.569 30.4853L173.394 31.05L174.219 31.6147C174.872 30.6612 175.174 29.5358 175.174 28.29H174.174ZM173.394 31.05L172.576 30.4751C172.194 31.0185 171.605 31.4689 170.735 31.7929L171.084 32.73L171.433 33.6671C172.603 33.2311 173.554 32.5615 174.212 31.6249L173.394 31.05ZM171.084 32.73L170.729 31.7952C169.875 32.1195 168.774 32.3 167.394 32.3V33.3V34.3C168.934 34.3 170.292 34.1005 171.439 33.6648L171.084 32.73ZM167.394 33.3V32.3C166.297 32.3 165.384 32.2227 164.645 32.0785L164.454 33.06L164.262 34.0415C165.163 34.2173 166.211 34.3 167.394 34.3V33.3ZM164.454 33.06L164.645 32.0785C163.901 31.9333 163.197 31.7073 162.531 31.4013L162.114 32.31L161.696 33.2187C162.51 33.5927 163.366 33.8667 164.262 34.0415L164.454 33.06ZM162.114 32.31H163.114V29.1H162.114H161.114V32.31H162.114ZM162.114 29.1L161.685 30.0033C162.548 30.4131 163.496 30.753 164.527 31.0266L164.784 30.06L165.04 29.0934C164.111 28.847 163.28 28.5469 162.543 28.1967L162.114 29.1ZM164.784 30.06L164.527 31.0266C165.574 31.3043 166.572 31.45 167.514 31.45V30.45V29.45C166.776 29.45 165.953 29.3357 165.04 29.0934L164.784 30.06ZM167.514 30.45V31.45C168.608 31.45 169.616 31.291 170.335 30.7909L169.764 29.97L169.193 29.1491C168.992 29.289 168.5 29.45 167.514 29.45V30.45ZM169.764 29.97L170.335 30.7909C171.052 30.2924 171.454 29.5618 171.454 28.68H170.454H169.454C169.454 28.8782 169.396 29.0077 169.193 29.1491L169.764 29.97ZM170.454 28.68H171.454C171.454 28.1592 171.303 27.6701 171.006 27.2408L170.184 27.81L169.362 28.3792C169.424 28.4699 169.454 28.5608 169.454 28.68H170.454ZM170.184 27.81L171.006 27.2408C170.688 26.7817 170.166 26.4201 169.608 26.1195L169.134 27L168.66 27.8805C169.141 28.1399 169.319 28.3183 169.362 28.3792L170.184 27.81ZM169.134 27L169.634 26.1338C169.056 25.8007 168.218 25.4109 167.147 24.9664L166.764 25.89L166.38 26.8136C167.43 27.2491 168.171 27.5993 168.634 27.8662L169.134 27ZM166.764 25.89L167.138 24.9628C166.13 24.5556 165.31 24.1578 164.668 23.7725L164.154 24.63L163.639 25.4875C164.397 25.9422 165.317 26.3844 166.389 26.8172L166.764 25.89ZM164.154 24.63L164.679 23.7792C164.109 23.4266 163.709 23.0305 163.443 22.6026L162.594 23.13L161.744 23.6574C162.199 24.3895 162.839 24.9934 163.628 25.4808L164.154 24.63ZM162.594 23.13L163.464 22.637C163.231 22.2264 163.084 21.6585 163.084 20.88H162.084H161.084C161.084 21.9015 161.276 22.8336 161.724 23.623L162.594 23.13ZM162.084 20.88H163.084C163.084 19.7364 163.51 18.9663 164.362 18.4231L163.824 17.58L163.286 16.7369C161.818 17.6737 161.084 19.1036 161.084 20.88H162.084ZM163.824 17.58L164.372 18.4165C165.319 17.7959 166.639 17.44 168.414 17.44V16.44V15.44C166.389 15.44 164.649 15.8441 163.276 16.7435L163.824 17.58ZM168.414 16.44V17.44C169.347 17.44 170.212 17.5333 171.012 17.7151L171.234 16.74L171.455 15.7649C170.495 15.5467 169.48 15.44 168.414 15.44V16.44ZM171.234 16.74L171.038 17.7206C171.853 17.8837 172.677 18.1572 173.511 18.5462L173.934 17.64L174.357 16.7338C173.39 16.2828 172.414 15.9563 171.43 15.7594L171.234 16.74ZM173.934 17.64L173.015 17.2449L171.815 20.0349L172.734 20.43L173.652 20.8251L174.852 18.0351L173.934 17.64ZM172.734 20.43L173.137 19.5147C172.606 19.2812 172.073 19.0786 171.539 18.9076L171.234 19.86L170.929 20.8124C171.394 20.9614 171.862 21.1388 172.331 21.3453L172.734 20.43ZM171.234 19.86L171.585 18.9237C171.055 18.7249 170.513 18.57 169.96 18.4594L169.764 19.44L169.568 20.4206C170.015 20.51 170.453 20.6351 170.883 20.7963L171.234 19.86ZM169.764 19.44L169.968 18.461C169.419 18.3468 168.861 18.29 168.294 18.29V19.29V20.29C168.727 20.29 169.148 20.3332 169.56 20.419L169.764 19.44ZM168.294 19.29V18.29C167.398 18.29 166.558 18.4268 165.907 18.8297L166.434 19.68L166.96 20.5303C167.149 20.4132 167.55 20.29 168.294 20.29V19.29ZM166.434 19.68L165.938 18.8118C165.244 19.2083 164.804 19.8598 164.804 20.7H165.804H166.804C166.804 20.67 166.807 20.6543 166.809 20.6487C166.81 20.6438 166.811 20.6421 166.812 20.6405C166.813 20.6396 166.835 20.6027 166.93 20.5482L166.434 19.68ZM165.804 20.7H164.804C164.804 21.2519 164.972 21.7682 165.311 22.2097L166.104 21.6L166.896 20.9903C166.836 20.9118 166.804 20.8281 166.804 20.7H165.804ZM166.104 21.6L165.367 22.2757C165.71 22.6504 166.209 22.9658 166.767 23.2444L167.214 22.35L167.661 21.4556C167.178 21.2142 166.938 21.0296 166.841 20.9243L166.104 21.6ZM167.214 22.35L166.808 23.2638C167.362 23.51 168.133 23.8345 169.116 24.2358L169.494 23.31L169.872 22.3842C168.895 21.9855 168.146 21.67 167.62 21.4362L167.214 22.35ZM169.494 23.31L169.132 24.2424C170.072 24.6067 170.844 24.9811 171.458 25.3608L171.984 24.51L172.509 23.6592C171.764 23.1988 170.876 22.7733 169.855 22.3776L169.494 23.31ZM171.984 24.51L171.488 25.3782C172.065 25.7084 172.478 26.1006 172.759 26.5451L173.604 26.01L174.449 25.4749C173.97 24.7194 173.302 24.1116 172.48 23.6418L171.984 24.51ZM173.604 26.01L172.759 26.5451C173.012 26.9441 173.174 27.5043 173.174 28.29H174.174H175.174C175.174 27.2357 174.956 26.2759 174.449 25.4749L173.604 26.01ZM181.501 17.52L180.506 17.4237L180.504 17.4386L180.503 17.4535L181.501 17.52ZM181.381 18.87L180.39 18.7378L180.239 19.87H181.381V18.87ZM181.621 18.87V19.87H182.184L182.476 19.389L181.621 18.87ZM182.881 17.52L183.443 18.3469L183.454 18.3394L183.465 18.3315L182.881 17.52ZM184.531 16.71L184.252 15.7496L184.244 15.7522L184.531 16.71ZM189.601 17.07L189.17 17.9725V17.9725L189.601 17.07ZM191.611 19.02L190.725 19.4833L190.731 19.4954L190.738 19.5074L191.611 19.02ZM192.331 33V34H193.331V33H192.331ZM188.551 33H187.551V34H188.551V33ZM183.181 20.16L183.767 20.9699L183.776 20.9634L183.785 20.9567L183.181 20.16ZM181.951 22.05L182.911 22.3309L182.912 22.3247L181.951 22.05ZM181.591 33V34H182.591V33H181.591ZM177.811 33H176.811V34H177.811V33ZM177.811 10.2V9.2H176.811V10.2H177.811ZM181.591 10.2H182.591V9.2H181.591V10.2ZM181.591 15.63H180.591C180.591 16.2387 180.562 16.8366 180.506 17.4237L181.501 17.52L182.496 17.6163C182.559 16.9634 182.591 16.3013 182.591 15.63H181.591ZM181.501 17.52L180.503 17.4535C180.463 18.0484 180.425 18.4717 180.39 18.7378L181.381 18.87L182.372 19.0022C182.417 18.6683 182.458 18.1916 182.499 17.5865L181.501 17.52ZM181.381 18.87V19.87H181.621V18.87V17.87H181.381V18.87ZM181.621 18.87L182.476 19.389C182.748 18.941 183.071 18.5999 183.443 18.3469L182.881 17.52L182.319 16.6931C181.691 17.1201 181.174 17.679 180.766 18.351L181.621 18.87ZM182.881 17.52L183.465 18.3315C183.873 18.0376 184.323 17.8164 184.818 17.6678L184.531 16.71L184.244 15.7522C183.539 15.9636 182.888 16.2824 182.297 16.7085L182.881 17.52ZM184.531 16.71L184.81 17.6703C185.337 17.5172 185.883 17.44 186.451 17.44V16.44V15.44C185.699 15.44 184.965 15.5428 184.252 15.7497L184.531 16.71ZM186.451 16.44V17.44C187.558 17.44 188.454 17.6307 189.17 17.9725L189.601 17.07L190.032 16.1675C188.988 15.6693 187.783 15.44 186.451 15.44V16.44ZM189.601 17.07L189.17 17.9725C189.851 18.2974 190.363 18.7913 190.725 19.4833L191.611 19.02L192.497 18.5567C191.939 17.4887 191.111 16.6826 190.032 16.1675L189.601 17.07ZM191.611 19.02L190.738 19.5074C191.107 20.1687 191.331 21.1129 191.331 22.41H192.331H193.331C193.331 20.9071 193.075 19.5913 192.484 18.5326L191.611 19.02ZM192.331 22.41H191.331V33H192.331H193.331V22.41H192.331ZM192.331 33V32H188.551V33V34H192.331V33ZM188.551 33H189.551V23.16H188.551H187.551V33H188.551ZM188.551 23.16H189.551C189.551 21.8225 189.298 20.6326 188.612 19.7753L187.831 20.4L187.05 21.0247C187.324 21.3674 187.551 22.0175 187.551 23.16H188.551ZM187.831 20.4L188.612 19.7753C187.88 18.8612 186.78 18.5 185.551 18.5V19.5V20.5C186.402 20.5 186.821 20.7388 187.05 21.0247L187.831 20.4ZM185.551 19.5V18.5C184.413 18.5 183.385 18.75 182.576 19.3633L183.181 20.16L183.785 20.9567C184.137 20.69 184.689 20.5 185.551 20.5V19.5ZM183.181 20.16L182.594 19.3501C181.796 19.9284 181.277 20.7687 180.989 21.7753L181.951 22.05L182.912 22.3247C183.105 21.6514 183.406 21.2316 183.767 20.9699L183.181 20.16ZM181.951 22.05L180.991 21.7691C180.716 22.7089 180.591 23.8201 180.591 25.08H181.591H182.591C182.591 23.9399 182.706 23.0311 182.911 22.3309L181.951 22.05ZM181.591 25.08H180.591V33H181.591H182.591V25.08H181.591ZM181.591 33V32H177.811V33V34H181.591V33ZM177.811 33H178.811V10.2H177.811H176.811V33H177.811ZM177.811 10.2V11.2H181.591V10.2V9.2H177.811V10.2ZM181.591 10.2H180.591V15.63H181.591H182.591V10.2H181.591Z" fill="#F4EFE8" mask="url(#path-6-outside-1_0_1)"/>
</svg>
